<?xml version="1.0" encoding="iso-8859-1"?>
<!-- Generator: Adobe Illustrator 21.1.0, SVG Export Plug-In . SVG Version: 6.00 Build 0)  -->
<svg version="1.1" id="_x31_" xmlns="http://www.w3.org/2000/svg" xmlns:xlink="http://www.w3.org/1999/xlink" x="0px" y="0px"
	 viewBox="0 0 512 512" style="enable-background:new 0 0 512 512;" xml:space="preserve">
<g>
	<path style="fill:#FFFFFF;" d="M512,254.839v-6.895c-2.56,0-3.463-0.503-5.236-1.611c-2.211-1.381-3.491-2.992-6.4-2.992
		c-2.909,0-4.189,1.611-6.4,2.992c-1.774,1.108-2.676,1.611-5.236,1.611c-2.56,0-3.463-0.503-5.236-1.611
		c-2.211-1.381-3.491-2.992-6.4-2.992c-2.909,0-4.189,1.611-6.4,2.992c-1.774,1.108-2.676,1.611-5.236,1.611
		c-2.56,0-3.463-0.503-5.237-1.611c-2.211-1.381-3.491-2.992-6.4-2.992c-2.909,0-4.189,1.611-6.4,2.992
		c-1.773,1.108-2.676,1.611-5.236,1.611c-2.56,0-3.463-0.503-5.236-1.611c-2.211-1.381-3.491-2.992-6.4-2.992
		c-2.909,0-4.189,1.611-6.4,2.992c-1.774,1.108-2.676,1.611-5.236,1.611c-2.56,0-3.462-0.503-5.236-1.611
		c-2.211-1.381-3.491-2.992-6.4-2.992c-2.909,0-4.189,1.611-6.4,2.992c-1.774,1.108-2.676,1.611-5.236,1.611
		c-2.56,0-3.463-0.503-5.236-1.611c-2.211-1.381-3.491-2.992-6.4-2.992c-2.909,0-4.189,1.611-6.4,2.992
		c-1.774,1.108-2.676,1.611-5.236,1.611c-2.56,0-3.463-0.503-5.237-1.611c-2.211-1.381-3.491-2.992-6.4-2.992
		c-2.909,0-4.189,1.611-6.4,2.992c-1.773,1.108-2.676,1.611-5.236,1.611c-2.56,0-3.463-0.503-5.236-1.611
		c-2.211-1.381-3.491-2.992-6.4-2.992c-2.909,0-4.189,1.611-6.4,2.992c-1.774,1.108-2.676,1.611-5.237,1.611
		c-2.56,0-3.462-0.503-5.236-1.611c-2.211-1.381-3.491-2.992-6.4-2.992c-2.909,0-4.189,1.611-6.4,2.992
		c-1.774,1.108-2.676,1.611-5.236,1.611c-2.56,0-3.463-0.503-5.236-1.611c-2.211-1.381-3.491-2.992-6.4-2.992
		c-2.909,0-4.189,1.611-6.4,2.992c-1.774,1.108-2.676,1.611-5.236,1.611c-2.56,0-3.463-0.503-5.236-1.611
		c-2.211-1.381-3.491-2.992-6.4-2.992c-2.909,0-4.189,1.611-6.4,2.992c-1.774,1.108-2.676,1.611-5.236,1.611
		c-2.56,0-3.463-0.503-5.236-1.611c-2.211-1.381-3.491-2.992-6.4-2.992c-2.909,0-4.189,1.611-6.4,2.992
		c-1.774,1.108-2.676,1.611-5.237,1.611c-2.56,0-3.462-0.503-5.236-1.611c-2.211-1.381-3.491-2.992-6.4-2.992
		c-2.909,0-4.189,1.611-6.4,2.992c-1.774,1.108-2.676,1.611-5.236,1.611c-2.56,0-3.463-0.503-5.236-1.611
		c-2.211-1.381-3.491-2.992-6.4-2.992c-2.909,0-4.189,1.611-6.4,2.992c-1.773,1.108-2.676,1.611-5.236,1.611
		c-2.56,0-3.463-0.503-5.236-1.611c-2.211-1.381-3.491-2.992-6.4-2.992c-2.909,0-4.189,1.611-6.4,2.992
		c-1.773,1.108-2.676,1.611-5.236,1.611c-2.56,0-3.463-0.503-5.236-1.611c-2.211-1.381-3.491-2.992-6.4-2.992
		c-2.909,0-4.189,1.611-6.4,2.992c-1.773,1.108-2.676,1.611-5.236,1.611c-2.56,0-3.463-0.503-5.236-1.611
		c-2.211-1.381-3.491-2.992-6.4-2.992c-2.909,0-4.189,1.611-6.4,2.992c-1.774,1.108-2.676,1.611-5.236,1.611
		c-2.56,0-3.463-0.503-5.237-1.611c-2.211-1.381-3.491-2.992-6.4-2.992c-2.909,0-4.189,1.611-6.4,2.992
		c-1.773,1.108-2.676,1.611-5.236,1.611c-2.56,0-3.463-0.503-5.236-1.611c-2.211-1.381-3.491-2.992-6.4-2.992
		c-2.909,0-4.189,1.611-6.4,2.992c-1.774,1.108-2.676,1.611-5.236,1.611s-3.463-0.503-5.236-1.611
		c-2.211-1.381-3.491-2.992-6.4-2.992c-2.909,0-4.189,1.611-6.4,2.992c-1.774,1.108-2.676,1.611-5.236,1.611
		c-2.56,0-3.463-0.503-5.237-1.611c-2.211-1.381-3.491-2.992-6.4-2.992c-2.909,0-4.189,1.611-6.4,2.992
		c-1.774,1.108-2.676,1.611-5.236,1.611c-2.56,0-3.463-0.503-5.236-1.611c-2.211-1.381-3.491-2.992-6.4-2.992
		c-2.909,0-4.189,1.611-6.4,2.992c-1.774,1.108-2.676,1.611-5.236,1.611v6.895c0.77,0.019,1.425,1.35,2.068,1.985
		c0.648,0.641-0.389,1.345-2.008,1.345c-0.02,0-0.04,0-0.06-0.001v2.243c1.092,0.011,0.979,1.385,0,1.715v5.267
		c0,0,2.793-0.115,4.538-0.115c1.745,0,3.724,1.381,7.098,1.381c3.375,0,5.353-1.381,7.098-1.381c1.746,0,4.538,0.115,4.538,0.115
		s2.793-0.115,4.538-0.115c1.746,0,3.724,1.381,7.098,1.381c3.375,0,5.353-1.381,7.098-1.381c1.745,0,4.538,0.115,4.538,0.115
		s2.793-0.115,4.538-0.115c1.745,0,3.724,1.381,7.098,1.381s5.353-1.381,7.098-1.381c1.745,0,4.538,0.115,4.538,0.115
		s2.793-0.115,4.538-0.115c1.745,0,3.724,1.381,7.098,1.381c3.375,0,5.353-1.381,7.098-1.381c1.746,0,4.538,0.115,4.538,0.115
		s2.793-0.115,4.538-0.115c1.746,0,3.724,1.381,7.098,1.381c3.375,0,5.353-1.381,7.098-1.381c1.745,0,4.538,0.115,4.538,0.115
		s2.793-0.115,4.538-0.115c1.745,0,3.724,1.381,7.098,1.381s5.353-1.381,7.098-1.381c1.745,0,4.538,0.115,4.538,0.115
		s2.793-0.115,4.538-0.115c1.745,0,3.724,1.381,7.098,1.381c3.375,0,5.353-1.381,7.098-1.381s4.538,0.115,4.538,0.115
		s2.793-0.115,4.538-0.115c1.745,0,3.723,1.381,7.098,1.381c3.374,0,5.353-1.381,7.098-1.381c1.746,0,4.538,0.115,4.538,0.115
		s2.793-0.115,4.538-0.115c1.745,0,3.723,1.381,7.098,1.381c3.375,0,5.353-1.381,7.098-1.381s4.538,0.115,4.538,0.115
		s2.793-0.115,4.538-0.115c1.745,0,3.724,1.381,7.098,1.381c3.375,0,5.353-1.381,7.098-1.381c1.745,0,4.538,0.115,4.538,0.115
		s2.793-0.115,4.538-0.115c1.745,0,3.724,1.381,7.098,1.381c3.374,0,5.353-1.381,7.098-1.381c1.745,0,4.538,0.115,4.538,0.115
		s2.793-0.115,4.538-0.115c1.746,0,3.724,1.381,7.098,1.381c3.374,0,5.353-1.381,7.098-1.381c1.746,0,4.538,0.115,4.538,0.115
		s2.793-0.115,4.538-0.115c1.746,0,3.724,1.381,7.098,1.381c3.375,0,5.353-1.381,7.098-1.381c1.746,0,4.538,0.115,4.538,0.115
		s2.793-0.115,4.538-0.115c1.746,0,3.724,1.381,7.098,1.381s5.353-1.381,7.098-1.381c1.745,0,4.538,0.115,4.538,0.115
		s2.793-0.115,4.538-0.115c1.745,0,3.723,1.381,7.098,1.381c3.374,0,5.353-1.381,7.098-1.381c1.745,0,4.538,0.115,4.538,0.115
		s2.793-0.115,4.538-0.115c1.746,0,3.724,1.381,7.098,1.381c3.375,0,5.353-1.381,7.098-1.381c1.746,0,4.538,0.115,4.538,0.115
		s2.793-0.115,4.538-0.115c1.746,0,3.724,1.381,7.098,1.381s5.353-1.381,7.098-1.381c1.745,0,4.538,0.115,4.538,0.115
		s2.793-0.115,4.538-0.115c1.745,0,3.724,1.381,7.098,1.381c3.375,0,5.353-1.381,7.098-1.381c1.746,0,4.538,0.115,4.538,0.115
		s2.793-0.115,4.538-0.115c1.745,0,3.724,1.381,7.098,1.381c3.375,0,5.353-1.381,7.098-1.381c1.745,0,4.538,0.115,4.538,0.115
		s2.793-0.115,4.538-0.115c1.745,0,3.724,1.381,7.098,1.381c3.375,0,5.353-1.381,7.098-1.381c1.746,0,4.538,0.115,4.538,0.115
		s2.793-0.115,4.538-0.115c1.746,0,3.724,1.381,7.098,1.381c3.374,0,5.353-1.381,7.098-1.381c1.745,0,4.538,0.115,4.538,0.115
		s2.793-0.115,4.538-0.115c1.745,0,3.724,1.381,7.098,1.381c3.375,0,5.353-1.381,7.098-1.381c1.745,0,4.538,0.115,4.538,0.115
		v-5.267c-0.979-0.329-1.091-1.704,0-1.715v-2.243c-0.02,0-0.04,0.001-0.06,0.001c-1.62,0-2.656-0.705-2.008-1.345
		C510.575,256.189,511.23,254.859,512,254.839z M505.632,248.161c0.55,0.034,0.549,1.084-0.034,1.155
		c-0.55,0.068-0.756-0.238-0.722-0.611C504.911,248.331,505.083,248.127,505.632,248.161z M504.258,251.186
		c-0.275,0.646-0.703,1.273-1.375,1.937c-0.309,0.306-0.55,0.034-0.447-0.374c0.103-0.408,0.275-1.257,0.825-2.073
		C503.811,249.86,504.533,250.54,504.258,251.186z M502.505,246.496c0.55-0.272,0.996,0.306,0.55,0.747
		c-0.447,0.442-1.065,0.884-1.512,0.748C501.097,247.855,502.048,246.722,502.505,246.496z M500.375,257.575l-0.011,0l-0.011,0
		c-0.825,0-1.409-0.646-1.512-1.563c-0.091-0.811,0.275-1.903,1.512-1.903l0.011,0.001l0.011-0.001c1.237,0,1.603,1.092,1.512,1.903
		C501.784,256.929,501.2,257.575,500.375,257.575z M501.268,262.672c0.101,0.368-0.429,0.571-0.905,0.578
		c-0.475-0.007-1.006-0.21-0.905-0.578c0.101-0.366,0.563-1.121,0.905-1.153C500.705,261.552,501.168,262.307,501.268,262.672z
		 M499.7,251.22c0-0.578,0-1.461,0.653-1.461l0.011,0l0.011,0c0.653,0,0.653,0.884,0.653,1.461c0,0.578-0.241,1.359-0.618,1.393
		l-0.046,0.001l-0.046-0.001C499.94,252.579,499.7,251.797,499.7,251.22z M500.353,245.578l0.011,0.001l0.011-0.001
		c0.893,0,1.546,0.204,1.375,0.544c-0.172,0.34-0.962,1.529-1.375,1.597l-0.011,0.001l-0.011-0.001
		c-0.413-0.068-1.203-1.257-1.375-1.597C498.806,245.782,499.459,245.578,500.353,245.578z M498.222,246.496
		c0.457,0.226,1.409,1.359,0.962,1.495c-0.447,0.136-1.065-0.306-1.512-0.748C497.225,246.802,497.672,246.224,498.222,246.496z
		 M497.466,250.676c0.55,0.816,0.721,1.665,0.825,2.073c0.103,0.408-0.137,0.68-0.447,0.374c-0.672-0.664-1.1-1.291-1.375-1.937
		C496.195,250.54,496.916,249.86,497.466,250.676z M495.095,248.161c0.55-0.034,0.722,0.17,0.756,0.544
		c0.034,0.374-0.172,0.679-0.722,0.611C494.546,249.245,494.545,248.195,495.095,248.161z M491.178,250.778
		c0.516-0.408,0.756-0.034,0.893,0.272c0.138,0.306,0,0.747-0.412,0.781C491.179,251.871,490.662,251.186,491.178,250.778z
		 M488.727,254.839c0.77,0.019,1.425,1.35,2.068,1.985c0.648,0.641-0.389,1.345-2.008,1.345c-0.02,0-0.04,0-0.06-0.001
		c-0.02,0-0.04,0.001-0.06,0.001c-1.619,0-2.656-0.705-2.008-1.345C487.302,256.189,487.957,254.859,488.727,254.839z
		 M485.384,251.05c0.138-0.306,0.378-0.68,0.893-0.272c0.516,0.408-0.001,1.093-0.481,1.053
		C485.384,251.797,485.246,251.356,485.384,251.05z M482.359,248.161c0.55,0.034,0.55,1.084-0.034,1.155
		c-0.55,0.068-0.756-0.238-0.721-0.611C481.638,248.331,481.81,248.127,482.359,248.161z M480.985,251.186
		c-0.275,0.646-0.702,1.273-1.374,1.937c-0.309,0.306-0.55,0.034-0.447-0.374c0.103-0.408,0.275-1.257,0.825-2.073
		C480.538,249.86,481.26,250.54,480.985,251.186z M479.233,246.496c0.55-0.272,0.996,0.306,0.55,0.747
		c-0.447,0.442-1.065,0.884-1.512,0.748C477.824,247.855,478.776,246.722,479.233,246.496z M477.102,257.575l-0.011,0l-0.011,0
		c-0.824,0-1.409-0.646-1.512-1.563c-0.091-0.811,0.275-1.903,1.512-1.903l0.011,0.001l0.011-0.001c1.237,0,1.603,1.092,1.512,1.903
		C478.511,256.929,477.927,257.575,477.102,257.575z M477.996,262.672c0.101,0.368-0.429,0.571-0.905,0.578
		c-0.476-0.007-1.006-0.21-0.905-0.578c0.101-0.366,0.563-1.121,0.905-1.153C477.433,261.552,477.895,262.307,477.996,262.672z
		 M476.427,251.22c0-0.578,0-1.461,0.653-1.461l0.011,0l0.011,0c0.653,0,0.653,0.884,0.653,1.461c0,0.578-0.241,1.359-0.619,1.393
		l-0.046,0.001l-0.046-0.001C476.667,252.579,476.427,251.797,476.427,251.22z M477.08,245.578l0.011,0.001l0.011-0.001
		c0.894,0,1.546,0.204,1.375,0.544c-0.172,0.34-0.962,1.529-1.375,1.597l-0.011,0.001l-0.011-0.001
		c-0.413-0.068-1.202-1.257-1.374-1.597C475.533,245.782,476.186,245.578,477.08,245.578z M474.949,246.496
		c0.457,0.226,1.409,1.359,0.962,1.495c-0.447,0.136-1.065-0.306-1.512-0.748C473.953,246.802,474.4,246.224,474.949,246.496z
		 M474.193,250.676c0.55,0.816,0.722,1.665,0.825,2.073c0.103,0.408-0.137,0.68-0.447,0.374c-0.672-0.664-1.099-1.291-1.374-1.937
		C472.922,250.54,473.643,249.86,474.193,250.676z M471.822,248.161c0.55-0.034,0.722,0.17,0.756,0.544
		c0.034,0.374-0.172,0.679-0.722,0.611C471.273,249.245,471.272,248.195,471.822,248.161z M467.905,250.778
		c0.515-0.408,0.756-0.034,0.893,0.272c0.138,0.306,0,0.747-0.412,0.781C467.906,251.871,467.39,251.186,467.905,250.778z
		 M465.455,254.839c0.77,0.019,1.425,1.35,2.068,1.985c0.648,0.641-0.389,1.345-2.008,1.345c-0.02,0-0.04,0-0.06-0.001
		c-0.02,0-0.04,0.001-0.06,0.001c-1.619,0-2.656-0.705-2.008-1.345C464.03,256.189,464.684,254.859,465.455,254.839z
		 M462.111,251.05c0.138-0.306,0.378-0.68,0.894-0.272c0.515,0.408-0.002,1.093-0.481,1.053
		C462.111,251.797,461.973,251.356,462.111,251.05z M459.087,248.161c0.549,0.034,0.549,1.084-0.035,1.155
		c-0.55,0.068-0.756-0.238-0.722-0.611C458.365,248.331,458.537,248.127,459.087,248.161z M457.712,251.186
		c-0.275,0.646-0.703,1.273-1.375,1.937c-0.309,0.306-0.55,0.034-0.447-0.374c0.103-0.408,0.275-1.257,0.825-2.073
		C457.266,249.86,457.987,250.54,457.712,251.186z M455.96,246.496c0.55-0.272,0.997,0.306,0.55,0.747
		c-0.447,0.442-1.065,0.884-1.512,0.748C454.551,247.855,455.503,246.722,455.96,246.496z M453.829,257.575l-0.011,0l-0.011,0
		c-0.825,0-1.409-0.646-1.512-1.563c-0.091-0.811,0.275-1.903,1.512-1.903l0.011,0.001l0.011-0.001c1.237,0,1.603,1.092,1.512,1.903
		C455.238,256.929,454.654,257.575,453.829,257.575z M454.723,262.672c0.102,0.368-0.429,0.571-0.905,0.578
		c-0.475-0.007-1.006-0.21-0.905-0.578c0.101-0.366,0.563-1.121,0.905-1.153C454.16,261.552,454.622,262.307,454.723,262.672z
		 M453.154,251.22c0-0.578,0-1.461,0.653-1.461l0.011,0l0.011,0c0.653,0,0.653,0.884,0.653,1.461c0,0.578-0.241,1.359-0.618,1.393
		l-0.046,0.001l-0.046-0.001C453.395,252.579,453.154,251.797,453.154,251.22z M453.807,245.578l0.011,0.001l0.011-0.001
		c0.893,0,1.546,0.204,1.374,0.544c-0.172,0.34-0.962,1.529-1.374,1.597l-0.011,0.001l-0.011-0.001
		c-0.412-0.068-1.203-1.257-1.374-1.597C452.261,245.782,452.913,245.578,453.807,245.578z M451.676,246.496
		c0.457,0.226,1.409,1.359,0.962,1.495c-0.447,0.136-1.065-0.306-1.512-0.748C450.68,246.802,451.127,246.224,451.676,246.496z
		 M450.921,250.676c0.55,0.816,0.722,1.665,0.825,2.073c0.103,0.408-0.138,0.68-0.447,0.374c-0.672-0.664-1.1-1.291-1.374-1.937
		C449.649,250.54,450.371,249.86,450.921,250.676z M448.55,248.161c0.55-0.034,0.721,0.17,0.756,0.544
		c0.034,0.374-0.172,0.679-0.722,0.611C448,249.245,448,248.195,448.55,248.161z M444.632,250.778
		c0.516-0.408,0.756-0.034,0.894,0.272c0.137,0.306,0,0.747-0.412,0.781C444.634,251.871,444.117,251.186,444.632,250.778z
		 M442.182,254.839c0.77,0.019,1.425,1.35,2.068,1.985c0.648,0.641-0.389,1.345-2.008,1.345c-0.02,0-0.04,0-0.06-0.001
		c-0.02,0-0.04,0.001-0.06,0.001c-1.62,0-2.656-0.705-2.008-1.345C440.757,256.189,441.412,254.859,442.182,254.839z
		 M438.838,251.05c0.137-0.306,0.378-0.68,0.893-0.272c0.516,0.408-0.002,1.093-0.481,1.053
		C438.838,251.797,438.701,251.356,438.838,251.05z M435.814,248.161c0.55,0.034,0.549,1.084-0.034,1.155
		c-0.549,0.068-0.756-0.238-0.721-0.611C435.093,248.331,435.264,248.127,435.814,248.161z M434.44,251.186
		c-0.275,0.646-0.702,1.273-1.375,1.937c-0.309,0.306-0.55,0.034-0.447-0.374c0.103-0.408,0.275-1.257,0.825-2.073
		C433.993,249.86,434.715,250.54,434.44,251.186z M432.687,246.496c0.55-0.272,0.996,0.306,0.55,0.747
		c-0.447,0.442-1.065,0.884-1.512,0.748C431.279,247.855,432.23,246.722,432.687,246.496z M430.557,257.575l-0.011,0l-0.011,0
		c-0.825,0-1.409-0.646-1.512-1.563c-0.091-0.811,0.275-1.903,1.512-1.903l0.011,0.001l0.011-0.001c1.237,0,1.603,1.092,1.512,1.903
		C431.965,256.929,431.382,257.575,430.557,257.575z M431.45,262.672c0.102,0.368-0.429,0.571-0.905,0.578
		c-0.475-0.007-1.006-0.21-0.905-0.578c0.101-0.366,0.563-1.121,0.905-1.153C430.887,261.552,431.35,262.307,431.45,262.672z
		 M429.882,251.22c0-0.578,0-1.461,0.653-1.461l0.011,0l0.011,0c0.653,0,0.653,0.884,0.653,1.461c0,0.578-0.241,1.359-0.618,1.393
		l-0.046,0.001l-0.046-0.001C430.122,252.579,429.882,251.797,429.882,251.22z M430.534,245.578l0.011,0.001l0.011-0.001
		c0.893,0,1.546,0.204,1.375,0.544c-0.172,0.34-0.962,1.529-1.375,1.597l-0.011,0.001l-0.011-0.001
		c-0.412-0.068-1.203-1.257-1.374-1.597C428.988,245.782,429.641,245.578,430.534,245.578z M428.404,246.496
		c0.457,0.226,1.409,1.359,0.962,1.495c-0.447,0.136-1.065-0.306-1.512-0.748C427.407,246.802,427.854,246.224,428.404,246.496z
		 M427.648,250.676c0.55,0.816,0.722,1.665,0.825,2.073c0.103,0.408-0.137,0.68-0.447,0.374c-0.672-0.664-1.1-1.291-1.375-1.937
		C426.376,250.54,427.098,249.86,427.648,250.676z M425.277,248.161c0.55-0.034,0.722,0.17,0.756,0.544
		c0.034,0.374-0.172,0.679-0.722,0.611C424.728,249.245,424.727,248.195,425.277,248.161z M421.359,250.778
		c0.516-0.408,0.756-0.034,0.893,0.272s0,0.747-0.413,0.781C421.361,251.871,420.844,251.186,421.359,250.778z M418.909,254.839
		c0.77,0.019,1.425,1.35,2.068,1.985c0.648,0.641-0.388,1.345-2.008,1.345c-0.02,0-0.04,0-0.06-0.001c-0.02,0-0.04,0.001-0.06,0.001
		c-1.619,0-2.656-0.705-2.008-1.345C417.484,256.189,418.139,254.859,418.909,254.839z M415.565,251.05
		c0.138-0.306,0.378-0.68,0.893-0.272c0.516,0.408-0.001,1.093-0.481,1.053C415.565,251.797,415.428,251.356,415.565,251.05z
		 M412.541,248.161c0.55,0.034,0.549,1.084-0.034,1.155c-0.55,0.068-0.756-0.238-0.721-0.611
		C411.82,248.331,411.992,248.127,412.541,248.161z M411.167,251.186c-0.275,0.646-0.702,1.273-1.375,1.937
		c-0.309,0.306-0.55,0.034-0.447-0.374c0.103-0.408,0.275-1.257,0.825-2.073C410.72,249.86,411.442,250.54,411.167,251.186z
		 M409.415,246.496c0.549-0.272,0.996,0.306,0.549,0.747c-0.447,0.442-1.065,0.884-1.512,0.748
		C408.006,247.855,408.958,246.722,409.415,246.496z M407.284,257.575l-0.011,0l-0.011,0c-0.825,0-1.409-0.646-1.512-1.563
		c-0.091-0.811,0.275-1.903,1.512-1.903l0.011,0.001l0.011-0.001c1.237,0,1.603,1.092,1.512,1.903
		C408.693,256.929,408.109,257.575,407.284,257.575z M408.178,262.672c0.101,0.368-0.429,0.571-0.905,0.578
		c-0.475-0.007-1.006-0.21-0.905-0.578c0.101-0.366,0.563-1.121,0.905-1.153C407.615,261.552,408.077,262.307,408.178,262.672z
		 M406.609,251.22c0-0.578,0-1.461,0.653-1.461l0.011,0l0.011,0c0.653,0,0.653,0.884,0.653,1.461c0,0.578-0.24,1.359-0.618,1.393
		l-0.046,0.001l-0.046-0.001C406.849,252.579,406.609,251.797,406.609,251.22z M407.262,245.578l0.011,0.001l0.011-0.001
		c0.893,0,1.546,0.204,1.375,0.544c-0.172,0.34-0.962,1.529-1.375,1.597l-0.011,0.001l-0.011-0.001
		c-0.413-0.068-1.203-1.257-1.375-1.597C405.715,245.782,406.368,245.578,407.262,245.578z M405.131,246.496
		c0.457,0.226,1.409,1.359,0.962,1.495c-0.447,0.136-1.065-0.306-1.512-0.748C404.134,246.802,404.581,246.224,405.131,246.496z
		 M404.375,250.676c0.55,0.816,0.722,1.665,0.825,2.073c0.103,0.408-0.138,0.68-0.447,0.374c-0.672-0.664-1.099-1.291-1.375-1.937
		C403.104,250.54,403.825,249.86,404.375,250.676z M402.004,248.161c0.55-0.034,0.722,0.17,0.756,0.544
		c0.035,0.374-0.172,0.679-0.721,0.611C401.455,249.245,401.454,248.195,402.004,248.161z M398.087,250.778
		c0.515-0.408,0.756-0.034,0.893,0.272c0.137,0.306,0,0.747-0.412,0.781C398.088,251.871,397.572,251.186,398.087,250.778z
		 M395.636,254.839c0.77,0.019,1.425,1.35,2.068,1.985c0.648,0.641-0.389,1.345-2.008,1.345c-0.02,0-0.04,0-0.06-0.001
		c-0.02,0-0.04,0.001-0.06,0.001c-1.619,0-2.656-0.705-2.008-1.345C394.211,256.189,394.866,254.859,395.636,254.839z
		 M392.293,251.05c0.137-0.306,0.378-0.68,0.893-0.272c0.515,0.408-0.002,1.093-0.481,1.053
		C392.293,251.797,392.155,251.356,392.293,251.05z M389.269,248.161c0.55,0.034,0.549,1.084-0.034,1.155
		c-0.55,0.068-0.756-0.238-0.722-0.611C388.547,248.331,388.719,248.127,389.269,248.161z M387.894,251.186
		c-0.275,0.646-0.702,1.273-1.374,1.937c-0.309,0.306-0.55,0.034-0.447-0.374c0.103-0.408,0.275-1.257,0.825-2.073
		C387.447,249.86,388.169,250.54,387.894,251.186z M386.142,246.496c0.55-0.272,0.997,0.306,0.55,0.747s-1.065,0.884-1.512,0.748
		C384.733,247.855,385.685,246.722,386.142,246.496z M384.011,257.575l-0.011,0l-0.011,0c-0.825,0-1.409-0.646-1.512-1.563
		c-0.091-0.811,0.275-1.903,1.512-1.903l0.011,0.001l0.011-0.001c1.237,0,1.603,1.092,1.512,1.903
		C385.42,256.929,384.836,257.575,384.011,257.575z M384.905,262.672c0.102,0.368-0.429,0.571-0.905,0.578
		c-0.475-0.007-1.006-0.21-0.905-0.578c0.101-0.366,0.563-1.121,0.905-1.153C384.342,261.552,384.804,262.307,384.905,262.672z
		 M383.336,251.22c0-0.578,0-1.461,0.653-1.461l0.011,0l0.011,0c0.653,0,0.653,0.884,0.653,1.461c0,0.578-0.241,1.359-0.618,1.393
		L384,252.614l-0.046-0.001C383.576,252.579,383.336,251.797,383.336,251.22z M383.989,245.578l0.011,0.001l0.011-0.001
		c0.893,0,1.547,0.204,1.375,0.544c-0.172,0.34-0.962,1.529-1.375,1.597L384,247.721l-0.011-0.001
		c-0.413-0.068-1.203-1.257-1.375-1.597C382.443,245.782,383.095,245.578,383.989,245.578z M381.858,246.496
		c0.457,0.226,1.409,1.359,0.962,1.495c-0.447,0.136-1.065-0.306-1.512-0.748C380.862,246.802,381.309,246.224,381.858,246.496z
		 M381.102,250.676c0.55,0.816,0.722,1.665,0.825,2.073c0.103,0.408-0.137,0.68-0.447,0.374c-0.672-0.664-1.1-1.291-1.374-1.937
		C379.831,250.54,380.553,249.86,381.102,250.676z M378.731,248.161c0.55-0.034,0.722,0.17,0.756,0.544
		c0.034,0.374-0.172,0.679-0.722,0.611C378.182,249.245,378.181,248.195,378.731,248.161z M374.814,250.778
		c0.515-0.408,0.756-0.034,0.893,0.272c0.137,0.306,0,0.747-0.412,0.781C374.816,251.871,374.299,251.186,374.814,250.778z
		 M372.364,254.839c0.77,0.019,1.425,1.35,2.068,1.985c0.648,0.641-0.389,1.345-2.008,1.345c-0.02,0-0.04,0-0.06-0.001
		c-0.02,0-0.04,0.001-0.06,0.001c-1.619,0-2.656-0.705-2.008-1.345C370.939,256.189,371.594,254.859,372.364,254.839z
		 M369.02,251.05c0.137-0.306,0.378-0.68,0.894-0.272c0.515,0.408-0.002,1.093-0.481,1.053
		C369.02,251.797,368.882,251.356,369.02,251.05z M365.996,248.161c0.55,0.034,0.549,1.084-0.035,1.155
		c-0.55,0.068-0.756-0.238-0.721-0.611C365.274,248.331,365.446,248.127,365.996,248.161z M364.622,251.186
		c-0.275,0.646-0.703,1.273-1.375,1.937c-0.309,0.306-0.55,0.034-0.447-0.374c0.103-0.408,0.275-1.257,0.825-2.073
		C364.175,249.86,364.897,250.54,364.622,251.186z M362.869,246.496c0.55-0.272,0.996,0.306,0.55,0.747
		c-0.447,0.442-1.065,0.884-1.512,0.748C361.46,247.855,362.412,246.722,362.869,246.496z M360.739,257.575l-0.011,0l-0.011,0
		c-0.825,0-1.409-0.646-1.512-1.563c-0.091-0.811,0.275-1.903,1.512-1.903l0.011,0.001l0.011-0.001c1.237,0,1.603,1.092,1.512,1.903
		C362.147,256.929,361.563,257.575,360.739,257.575z M361.632,262.672c0.102,0.368-0.429,0.571-0.905,0.578
		c-0.475-0.007-1.006-0.21-0.905-0.578c0.101-0.366,0.563-1.121,0.905-1.153C361.069,261.552,361.531,262.307,361.632,262.672z
		 M360.063,251.22c0-0.578,0-1.461,0.653-1.461l0.011,0l0.011,0c0.653,0,0.653,0.884,0.653,1.461c0,0.578-0.241,1.359-0.619,1.393
		l-0.046,0.001l-0.046-0.001C360.304,252.579,360.063,251.797,360.063,251.22z M360.716,245.578l0.011,0.001l0.011-0.001
		c0.893,0,1.546,0.204,1.375,0.544c-0.172,0.34-0.962,1.529-1.375,1.597l-0.011,0.001l-0.011-0.001
		c-0.412-0.068-1.203-1.257-1.375-1.597C359.17,245.782,359.823,245.578,360.716,245.578z M358.586,246.496
		c0.457,0.226,1.409,1.359,0.962,1.495c-0.447,0.136-1.065-0.306-1.512-0.748C357.589,246.802,358.036,246.224,358.586,246.496z
		 M357.83,250.676c0.55,0.816,0.722,1.665,0.825,2.073c0.103,0.408-0.138,0.68-0.447,0.374c-0.672-0.664-1.099-1.291-1.374-1.937
		C356.558,250.54,357.28,249.86,357.83,250.676z M355.459,248.161c0.55-0.034,0.722,0.17,0.756,0.544
		c0.034,0.374-0.172,0.679-0.722,0.611C354.909,249.245,354.909,248.195,355.459,248.161z M351.541,250.778
		c0.516-0.408,0.756-0.034,0.893,0.272c0.138,0.306,0,0.747-0.412,0.781C351.543,251.871,351.026,251.186,351.541,250.778z
		 M349.091,254.839c0.77,0.019,1.425,1.35,2.068,1.985c0.648,0.641-0.389,1.345-2.008,1.345c-0.02,0-0.04,0-0.06-0.001
		c-0.02,0-0.04,0.001-0.06,0.001c-1.62,0-2.656-0.705-2.008-1.345C347.666,256.189,348.321,254.859,349.091,254.839z
		 M345.747,251.05c0.137-0.306,0.378-0.68,0.893-0.272c0.516,0.408-0.002,1.093-0.481,1.053
		C345.747,251.797,345.61,251.356,345.747,251.05z M342.723,248.161c0.55,0.034,0.549,1.084-0.035,1.155
		c-0.55,0.068-0.756-0.238-0.722-0.611C342.002,248.331,342.173,248.127,342.723,248.161z M341.349,251.186
		c-0.275,0.646-0.702,1.273-1.375,1.937c-0.309,0.306-0.549,0.034-0.447-0.374c0.103-0.408,0.275-1.257,0.825-2.073
		C340.902,249.86,341.624,250.54,341.349,251.186z M339.596,246.496c0.55-0.272,0.996,0.306,0.55,0.747
		c-0.447,0.442-1.065,0.884-1.512,0.748C338.188,247.855,339.139,246.722,339.596,246.496z M337.466,257.575l-0.011,0l-0.011,0
		c-0.825,0-1.409-0.646-1.512-1.563c-0.091-0.811,0.275-1.903,1.512-1.903l0.011,0.001l0.011-0.001c1.237,0,1.603,1.092,1.512,1.903
		C338.875,256.929,338.29,257.575,337.466,257.575z M338.359,262.672c0.102,0.368-0.429,0.571-0.905,0.578
		c-0.475-0.007-1.006-0.21-0.905-0.578c0.101-0.366,0.563-1.121,0.905-1.153C337.796,261.552,338.259,262.307,338.359,262.672z
		 M336.79,251.22c0-0.578,0-1.461,0.653-1.461l0.011,0l0.011,0c0.653,0,0.653,0.884,0.653,1.461c0,0.578-0.24,1.359-0.618,1.393
		l-0.046,0.001l-0.046-0.001C337.031,252.579,336.79,251.797,336.79,251.22z M337.443,245.578l0.011,0.001l0.011-0.001
		c0.893,0,1.546,0.204,1.374,0.544c-0.172,0.34-0.962,1.529-1.374,1.597l-0.011,0.001l-0.011-0.001
		c-0.412-0.068-1.203-1.257-1.375-1.597C335.897,245.782,336.55,245.578,337.443,245.578z M335.313,246.496
		c0.457,0.226,1.409,1.359,0.962,1.495c-0.447,0.136-1.065-0.306-1.512-0.748C334.316,246.802,334.763,246.224,335.313,246.496z
		 M334.557,250.676c0.55,0.816,0.721,1.665,0.825,2.073c0.103,0.408-0.138,0.68-0.447,0.374c-0.672-0.664-1.1-1.291-1.375-1.937
		C333.285,250.54,334.007,249.86,334.557,250.676z M332.186,248.161c0.55-0.034,0.722,0.17,0.756,0.544
		c0.034,0.374-0.172,0.679-0.721,0.611C331.637,249.245,331.636,248.195,332.186,248.161z M328.268,250.778
		c0.516-0.408,0.756-0.034,0.894,0.272c0.138,0.306,0,0.747-0.412,0.781C328.27,251.871,327.753,251.186,328.268,250.778z
		 M325.818,254.839c0.77,0.019,1.425,1.35,2.068,1.985c0.648,0.641-0.389,1.345-2.008,1.345c-0.02,0-0.04,0-0.06-0.001
		c-0.02,0-0.04,0.001-0.06,0.001c-1.619,0-2.656-0.705-2.008-1.345C324.393,256.189,325.048,254.859,325.818,254.839z
		 M322.474,251.05c0.137-0.306,0.378-0.68,0.893-0.272c0.515,0.408-0.002,1.093-0.481,1.053
		C322.474,251.797,322.337,251.356,322.474,251.05z M319.45,248.161c0.55,0.034,0.549,1.084-0.034,1.155
		c-0.55,0.068-0.756-0.238-0.722-0.611C318.729,248.331,318.901,248.127,319.45,248.161z M318.076,251.186
		c-0.275,0.646-0.702,1.273-1.374,1.937c-0.31,0.306-0.55,0.034-0.447-0.374c0.103-0.408,0.275-1.257,0.825-2.073
		C317.629,249.86,318.351,250.54,318.076,251.186z M316.324,246.496c0.55-0.272,0.996,0.306,0.55,0.747
		c-0.447,0.442-1.065,0.884-1.512,0.748C314.915,247.855,315.867,246.722,316.324,246.496z M314.193,257.575l-0.011,0l-0.011,0
		c-0.825,0-1.409-0.646-1.512-1.563c-0.091-0.811,0.275-1.903,1.512-1.903l0.011,0.001l0.011-0.001c1.237,0,1.603,1.092,1.512,1.903
		C315.602,256.929,315.018,257.575,314.193,257.575z M315.087,262.672c0.101,0.368-0.429,0.571-0.905,0.578
		c-0.475-0.007-1.006-0.21-0.905-0.578c0.101-0.366,0.563-1.121,0.905-1.153C314.524,261.552,314.986,262.307,315.087,262.672z
		 M313.518,251.22c0-0.578,0-1.461,0.653-1.461l0.011,0l0.011,0c0.653,0,0.653,0.884,0.653,1.461c0,0.578-0.241,1.359-0.618,1.393
		l-0.046,0.001l-0.046-0.001C313.758,252.579,313.518,251.797,313.518,251.22z M314.171,245.578l0.011,0.001l0.011-0.001
		c0.893,0,1.546,0.204,1.375,0.544c-0.172,0.34-0.962,1.529-1.375,1.597l-0.011,0.001l-0.011-0.001
		c-0.413-0.068-1.203-1.257-1.375-1.597C312.624,245.782,313.277,245.578,314.171,245.578z M312.04,246.496
		c0.457,0.226,1.409,1.359,0.962,1.495c-0.447,0.136-1.065-0.306-1.512-0.748S311.49,246.224,312.04,246.496z M311.284,250.676
		c0.55,0.816,0.722,1.665,0.825,2.073c0.103,0.408-0.138,0.68-0.447,0.374c-0.672-0.664-1.1-1.291-1.374-1.937
		C310.013,250.54,310.734,249.86,311.284,250.676z M308.913,248.161c0.55-0.034,0.722,0.17,0.756,0.544
		c0.034,0.374-0.172,0.679-0.722,0.611C308.364,249.245,308.363,248.195,308.913,248.161z M304.996,250.778
		c0.515-0.408,0.756-0.034,0.893,0.272c0.138,0.306,0,0.747-0.412,0.781C304.997,251.871,304.481,251.186,304.996,250.778z
		 M302.546,254.839c0.77,0.019,1.425,1.35,2.068,1.985c0.648,0.641-0.389,1.345-2.008,1.345c-0.02,0-0.04,0-0.06-0.001
		c-0.02,0-0.04,0.001-0.06,0.001c-1.619,0-2.656-0.705-2.008-1.345C301.12,256.189,301.775,254.859,302.546,254.839z
		 M299.202,251.05c0.138-0.306,0.378-0.68,0.893-0.272c0.515,0.408-0.001,1.093-0.481,1.053
		C299.202,251.797,299.064,251.356,299.202,251.05z M296.178,248.161c0.55,0.034,0.549,1.084-0.034,1.155
		c-0.55,0.068-0.756-0.238-0.721-0.611C295.456,248.331,295.628,248.127,296.178,248.161z M294.803,251.186
		c-0.275,0.646-0.702,1.273-1.374,1.937c-0.309,0.306-0.55,0.034-0.447-0.374c0.103-0.408,0.275-1.257,0.825-2.073
		C294.357,249.86,295.078,250.54,294.803,251.186z M293.051,246.496c0.55-0.272,0.996,0.306,0.55,0.747
		c-0.447,0.442-1.065,0.884-1.512,0.748C291.642,247.855,292.594,246.722,293.051,246.496z M290.92,257.575l-0.011,0l-0.011,0
		c-0.824,0-1.409-0.646-1.512-1.563c-0.091-0.811,0.275-1.903,1.512-1.903l0.011,0.001l0.011-0.001c1.237,0,1.603,1.092,1.512,1.903
		C292.329,256.929,291.745,257.575,290.92,257.575z M291.814,262.672c0.102,0.368-0.429,0.571-0.905,0.578
		c-0.475-0.007-1.006-0.21-0.905-0.578c0.101-0.366,0.563-1.121,0.905-1.153C291.251,261.552,291.713,262.307,291.814,262.672z
		 M290.245,251.22c0-0.578,0-1.461,0.653-1.461l0.011,0l0.011,0c0.653,0,0.653,0.884,0.653,1.461c0,0.578-0.241,1.359-0.619,1.393
		l-0.046,0.001l-0.046-0.001C290.485,252.579,290.245,251.797,290.245,251.22z M290.898,245.578l0.011,0.001l0.011-0.001
		c0.893,0,1.547,0.204,1.375,0.544c-0.172,0.34-0.962,1.529-1.375,1.597l-0.011,0.001l-0.011-0.001
		c-0.413-0.068-1.203-1.257-1.375-1.597C289.352,245.782,290.004,245.578,290.898,245.578z M288.767,246.496
		c0.457,0.226,1.409,1.359,0.962,1.495c-0.447,0.136-1.065-0.306-1.512-0.748C287.771,246.802,288.218,246.224,288.767,246.496z
		 M288.011,250.676c0.55,0.816,0.722,1.665,0.825,2.073c0.103,0.408-0.137,0.68-0.447,0.374c-0.672-0.664-1.099-1.291-1.374-1.937
		C286.74,250.54,287.462,249.86,288.011,250.676z M285.641,248.161c0.55-0.034,0.722,0.17,0.756,0.544
		c0.034,0.374-0.172,0.679-0.721,0.611C285.091,249.245,285.091,248.195,285.641,248.161z M281.723,250.778
		c0.516-0.408,0.756-0.034,0.894,0.272c0.137,0.306,0,0.747-0.412,0.781C281.725,251.871,281.208,251.186,281.723,250.778z
		 M279.273,254.839c0.77,0.019,1.425,1.35,2.068,1.985c0.648,0.641-0.389,1.345-2.008,1.345c-0.02,0-0.04,0-0.06-0.001
		c-0.02,0-0.04,0.001-0.06,0.001c-1.619,0-2.656-0.705-2.008-1.345C277.848,256.189,278.503,254.859,279.273,254.839z
		 M275.929,251.05c0.138-0.306,0.378-0.68,0.893-0.272c0.516,0.408-0.002,1.093-0.481,1.053
		C275.929,251.797,275.791,251.356,275.929,251.05z M272.905,248.161c0.549,0.034,0.549,1.084-0.034,1.155
		c-0.55,0.068-0.756-0.238-0.722-0.611C272.184,248.331,272.355,248.127,272.905,248.161z M271.531,251.186
		c-0.275,0.646-0.703,1.273-1.375,1.937c-0.309,0.306-0.55,0.034-0.447-0.374c0.103-0.408,0.275-1.257,0.825-2.073
		C271.084,249.86,271.806,250.54,271.531,251.186z M269.778,246.496c0.55-0.272,0.997,0.306,0.55,0.747
		c-0.447,0.442-1.065,0.884-1.512,0.748C268.369,247.855,269.321,246.722,269.778,246.496z M267.648,257.575l-0.011,0l-0.011,0
		c-0.825,0-1.409-0.646-1.512-1.563c-0.091-0.811,0.275-1.903,1.512-1.903l0.011,0.001l0.011-0.001c1.237,0,1.603,1.092,1.512,1.903
		C269.056,256.929,268.472,257.575,267.648,257.575z M268.541,262.672c0.102,0.368-0.429,0.571-0.905,0.578
		c-0.475-0.007-1.006-0.21-0.905-0.578c0.101-0.366,0.563-1.121,0.905-1.153C267.978,261.552,268.44,262.307,268.541,262.672z
		 M266.972,251.22c0-0.578,0-1.461,0.653-1.461l0.011,0l0.011,0c0.653,0,0.653,0.884,0.653,1.461c0,0.578-0.24,1.359-0.618,1.393
		l-0.046,0.001l-0.046-0.001C267.213,252.579,266.972,251.797,266.972,251.22z M267.625,245.578l0.011,0.001l0.011-0.001
		c0.893,0,1.546,0.204,1.375,0.544c-0.172,0.34-0.962,1.529-1.375,1.597l-0.011,0.001l-0.011-0.001
		c-0.412-0.068-1.203-1.257-1.374-1.597C266.079,245.782,266.732,245.578,267.625,245.578z M265.495,246.496
		c0.457,0.226,1.409,1.359,0.962,1.495c-0.447,0.136-1.065-0.306-1.512-0.748C264.498,246.802,264.945,246.224,265.495,246.496z
		 M264.739,250.676c0.55,0.816,0.721,1.665,0.825,2.073c0.103,0.408-0.137,0.68-0.447,0.374c-0.672-0.664-1.1-1.291-1.375-1.937
		C263.467,250.54,264.189,249.86,264.739,250.676z M262.368,248.161c0.55-0.034,0.721,0.17,0.756,0.544
		c0.035,0.374-0.172,0.679-0.721,0.611C261.818,249.245,261.818,248.195,262.368,248.161z M258.45,250.778
		c0.516-0.408,0.756-0.034,0.894,0.272c0.137,0.306,0,0.747-0.413,0.781C258.452,251.871,257.935,251.186,258.45,250.778z
		 M256,254.839c0.77,0.019,1.425,1.35,2.068,1.985c0.648,0.641-0.389,1.345-2.008,1.345c-0.02,0-0.04,0-0.06-0.001
		c-0.02,0-0.04,0.001-0.06,0.001c-1.62,0-2.656-0.705-2.008-1.345C254.575,256.189,255.23,254.859,256,254.839z M252.656,251.05
		c0.137-0.306,0.378-0.68,0.894-0.272c0.516,0.408-0.002,1.093-0.481,1.053C252.656,251.797,252.519,251.356,252.656,251.05z
		 M249.632,248.161c0.55,0.034,0.549,1.084-0.035,1.155c-0.549,0.068-0.756-0.238-0.721-0.611
		C248.911,248.331,249.082,248.127,249.632,248.161z M248.258,251.186c-0.275,0.646-0.702,1.273-1.374,1.937
		c-0.309,0.306-0.55,0.034-0.447-0.374c0.103-0.408,0.275-1.257,0.825-2.073C247.811,249.86,248.533,250.54,248.258,251.186z
		 M246.505,246.496c0.55-0.272,0.996,0.306,0.55,0.747c-0.447,0.442-1.065,0.884-1.512,0.748
		C245.097,247.855,246.048,246.722,246.505,246.496z M244.375,257.575l-0.011,0l-0.011,0c-0.825,0-1.409-0.646-1.512-1.563
		c-0.091-0.811,0.275-1.903,1.512-1.903l0.011,0.001l0.011-0.001c1.237,0,1.603,1.092,1.512,1.903
		C245.784,256.929,245.2,257.575,244.375,257.575z M245.268,262.672c0.101,0.368-0.429,0.571-0.905,0.578
		c-0.475-0.007-1.007-0.21-0.905-0.578c0.101-0.366,0.563-1.121,0.905-1.153C244.705,261.552,245.167,262.307,245.268,262.672z
		 M243.7,251.22c0-0.578,0-1.461,0.653-1.461l0.011,0l0.011,0c0.653,0,0.653,0.884,0.653,1.461c0,0.578-0.24,1.359-0.618,1.393
		l-0.045,0.001l-0.046-0.001C243.94,252.579,243.7,251.797,243.7,251.22z M244.352,245.578l0.011,0.001l0.011-0.001
		c0.893,0,1.546,0.204,1.374,0.544c-0.172,0.34-0.962,1.529-1.374,1.597l-0.011,0.001l-0.011-0.001
		c-0.412-0.068-1.203-1.257-1.374-1.597C242.806,245.782,243.459,245.578,244.352,245.578z M242.222,246.496
		c0.457,0.226,1.409,1.359,0.962,1.495c-0.447,0.136-1.065-0.306-1.512-0.748C241.225,246.802,241.672,246.224,242.222,246.496z
		 M241.466,250.676c0.55,0.816,0.722,1.665,0.825,2.073c0.103,0.408-0.137,0.68-0.447,0.374c-0.672-0.664-1.1-1.291-1.375-1.937
		C240.195,250.54,240.916,249.86,241.466,250.676z M239.095,248.161c0.55-0.034,0.722,0.17,0.756,0.544
		c0.034,0.374-0.172,0.679-0.722,0.611C238.546,249.245,238.545,248.195,239.095,248.161z M235.178,250.778
		c0.516-0.408,0.756-0.034,0.893,0.272s0,0.747-0.412,0.781C235.179,251.871,234.662,251.186,235.178,250.778z M232.727,254.839
		c0.77,0.019,1.425,1.35,2.068,1.985c0.648,0.641-0.389,1.345-2.008,1.345c-0.02,0-0.04,0-0.06-0.001c-0.02,0-0.04,0.001-0.06,0.001
		c-1.619,0-2.656-0.705-2.008-1.345C231.302,256.189,231.957,254.859,232.727,254.839z M229.384,251.05
		c0.137-0.306,0.378-0.68,0.893-0.272c0.516,0.408-0.001,1.093-0.481,1.053C229.384,251.797,229.246,251.356,229.384,251.05z
		 M226.359,248.161c0.55,0.034,0.549,1.084-0.034,1.155c-0.55,0.068-0.756-0.238-0.722-0.611
		C225.638,248.331,225.81,248.127,226.359,248.161z M224.985,251.186c-0.275,0.646-0.702,1.273-1.374,1.937
		c-0.309,0.306-0.55,0.034-0.447-0.374c0.103-0.408,0.275-1.257,0.825-2.073C224.538,249.86,225.26,250.54,224.985,251.186z
		 M223.233,246.496c0.549-0.272,0.997,0.306,0.549,0.747c-0.446,0.442-1.065,0.884-1.512,0.748
		C221.824,247.855,222.776,246.722,223.233,246.496z M221.102,257.575l-0.011,0l-0.011,0c-0.825,0-1.409-0.646-1.512-1.563
		c-0.091-0.811,0.275-1.903,1.512-1.903l0.011,0.001l0.011-0.001c1.237,0,1.603,1.092,1.512,1.903
		C222.511,256.929,221.927,257.575,221.102,257.575z M221.996,262.672c0.101,0.368-0.429,0.571-0.905,0.578
		c-0.475-0.007-1.006-0.21-0.905-0.578c0.101-0.366,0.563-1.121,0.905-1.153C221.433,261.552,221.895,262.307,221.996,262.672z
		 M220.427,251.22c0-0.578,0-1.461,0.653-1.461l0.011,0l0.011,0c0.653,0,0.653,0.884,0.653,1.461c0,0.578-0.24,1.359-0.619,1.393
		l-0.046,0.001l-0.046-0.001C220.667,252.579,220.427,251.797,220.427,251.22z M221.08,245.578l0.011,0.001l0.011-0.001
		c0.894,0,1.546,0.204,1.375,0.544c-0.172,0.34-0.962,1.529-1.375,1.597l-0.011,0.001l-0.011-0.001
		c-0.413-0.068-1.203-1.257-1.374-1.597C219.533,245.782,220.186,245.578,221.08,245.578z M218.949,246.496
		c0.457,0.226,1.409,1.359,0.962,1.495c-0.447,0.136-1.065-0.306-1.512-0.748C217.953,246.802,218.399,246.224,218.949,246.496z
		 M218.193,250.676c0.55,0.816,0.722,1.665,0.825,2.073c0.103,0.408-0.137,0.68-0.447,0.374c-0.672-0.664-1.1-1.291-1.374-1.937
		C216.922,250.54,217.643,249.86,218.193,250.676z M215.822,248.161c0.55-0.034,0.722,0.17,0.756,0.544
		c0.034,0.374-0.172,0.679-0.722,0.611C215.273,249.245,215.272,248.195,215.822,248.161z M211.905,250.778
		c0.515-0.408,0.756-0.034,0.893,0.272s0,0.747-0.412,0.781C211.906,251.871,211.389,251.186,211.905,250.778z M209.454,254.839
		c0.77,0.019,1.425,1.35,2.068,1.985c0.648,0.641-0.389,1.345-2.008,1.345c-0.02,0-0.04,0-0.06-0.001c-0.02,0-0.04,0.001-0.06,0.001
		c-1.619,0-2.656-0.705-2.008-1.345C208.029,256.189,208.684,254.859,209.454,254.839z M206.111,251.05
		c0.137-0.306,0.378-0.68,0.893-0.272c0.515,0.408-0.002,1.093-0.481,1.053C206.111,251.797,205.973,251.356,206.111,251.05z
		 M203.087,248.161c0.55,0.034,0.549,1.084-0.034,1.155c-0.55,0.068-0.756-0.238-0.722-0.611
		C202.365,248.331,202.537,248.127,203.087,248.161z M201.712,251.186c-0.275,0.646-0.703,1.273-1.375,1.937
		c-0.309,0.306-0.55,0.034-0.447-0.374c0.103-0.408,0.275-1.257,0.825-2.073C201.265,249.86,201.987,250.54,201.712,251.186z
		 M199.96,246.496c0.55-0.272,0.997,0.306,0.55,0.747c-0.447,0.442-1.065,0.884-1.512,0.748
		C198.551,247.855,199.503,246.722,199.96,246.496z M197.829,257.575l-0.011,0l-0.011,0c-0.825,0-1.409-0.646-1.512-1.563
		c-0.091-0.811,0.275-1.903,1.512-1.903l0.011,0.001l0.011-0.001c1.237,0,1.603,1.092,1.512,1.903
		C199.238,256.929,198.654,257.575,197.829,257.575z M198.723,262.672c0.102,0.368-0.429,0.571-0.905,0.578
		c-0.475-0.007-1.006-0.21-0.905-0.578c0.101-0.366,0.563-1.121,0.905-1.153C198.16,261.552,198.622,262.307,198.723,262.672z
		 M197.154,251.22c0-0.578,0-1.461,0.653-1.461l0.011,0l0.011,0c0.653,0,0.653,0.884,0.653,1.461c0,0.578-0.241,1.359-0.618,1.393
		l-0.046,0.001l-0.046-0.001C197.395,252.579,197.154,251.797,197.154,251.22z M197.807,245.578l0.011,0.001l0.011-0.001
		c0.893,0,1.547,0.204,1.375,0.544c-0.172,0.34-0.962,1.529-1.375,1.597l-0.011,0.001l-0.011-0.001
		c-0.412-0.068-1.203-1.257-1.375-1.597C196.261,245.782,196.913,245.578,197.807,245.578z M195.676,246.496
		c0.457,0.226,1.409,1.359,0.962,1.495c-0.447,0.136-1.065-0.306-1.512-0.748C194.68,246.802,195.127,246.224,195.676,246.496z
		 M194.921,250.676c0.55,0.816,0.721,1.665,0.825,2.073c0.103,0.408-0.138,0.68-0.447,0.374c-0.672-0.664-1.1-1.291-1.375-1.937
		C193.649,250.54,194.371,249.86,194.921,250.676z M192.55,248.161c0.549-0.034,0.721,0.17,0.756,0.544
		c0.034,0.374-0.172,0.679-0.722,0.611C192,249.245,192,248.195,192.55,248.161z M188.632,250.778
		c0.515-0.408,0.756-0.034,0.893,0.272c0.137,0.306,0,0.747-0.412,0.781C188.634,251.871,188.117,251.186,188.632,250.778z
		 M186.182,254.839c0.77,0.019,1.425,1.35,2.068,1.985c0.648,0.641-0.389,1.345-2.008,1.345c-0.02,0-0.04,0-0.06-0.001
		c-0.02,0-0.04,0.001-0.06,0.001c-1.62,0-2.656-0.705-2.008-1.345C184.757,256.189,185.412,254.859,186.182,254.839z
		 M182.838,251.05c0.138-0.306,0.378-0.68,0.894-0.272c0.516,0.408-0.002,1.093-0.481,1.053
		C182.838,251.797,182.7,251.356,182.838,251.05z M179.814,248.161c0.55,0.034,0.549,1.084-0.035,1.155
		c-0.55,0.068-0.756-0.238-0.721-0.611C179.093,248.331,179.264,248.127,179.814,248.161z M178.44,251.186
		c-0.275,0.646-0.702,1.273-1.375,1.937c-0.309,0.306-0.55,0.034-0.447-0.374c0.103-0.408,0.275-1.257,0.825-2.073
		C177.993,249.86,178.715,250.54,178.44,251.186z M176.687,246.496c0.55-0.272,0.997,0.306,0.55,0.747
		c-0.447,0.442-1.065,0.884-1.512,0.748C175.278,247.855,176.23,246.722,176.687,246.496z M174.557,257.575l-0.011,0l-0.011,0
		c-0.825,0-1.409-0.646-1.512-1.563c-0.091-0.811,0.275-1.903,1.512-1.903l0.011,0.001l0.011-0.001c1.237,0,1.603,1.092,1.512,1.903
		C175.965,256.929,175.382,257.575,174.557,257.575z M175.45,262.672c0.102,0.368-0.429,0.571-0.904,0.578
		c-0.475-0.007-1.006-0.21-0.905-0.578c0.101-0.366,0.563-1.121,0.905-1.153C174.887,261.552,175.349,262.307,175.45,262.672z
		 M173.881,251.22c0-0.578,0-1.461,0.653-1.461l0.011,0l0.011,0c0.653,0,0.653,0.884,0.653,1.461c0,0.578-0.241,1.359-0.619,1.393
		l-0.045,0.001l-0.046-0.001C174.122,252.579,173.881,251.797,173.881,251.22z M174.534,245.578l0.011,0.001l0.011-0.001
		c0.893,0,1.546,0.204,1.374,0.544c-0.172,0.34-0.962,1.529-1.374,1.597l-0.011,0.001l-0.011-0.001
		c-0.412-0.068-1.203-1.257-1.374-1.597C172.988,245.782,173.641,245.578,174.534,245.578z M172.404,246.496
		c0.457,0.226,1.409,1.359,0.962,1.495c-0.447,0.136-1.065-0.306-1.512-0.748C171.407,246.802,171.854,246.224,172.404,246.496z
		 M171.648,250.676c0.55,0.816,0.722,1.665,0.825,2.073c0.103,0.408-0.137,0.68-0.447,0.374c-0.672-0.664-1.1-1.291-1.375-1.937
		C170.376,250.54,171.098,249.86,171.648,250.676z M169.277,248.161c0.55-0.034,0.722,0.17,0.756,0.544
		c0.034,0.374-0.172,0.679-0.722,0.611C168.728,249.245,168.727,248.195,169.277,248.161z M165.359,250.778
		c0.516-0.408,0.756-0.034,0.894,0.272c0.137,0.306,0,0.747-0.413,0.781C165.361,251.871,164.844,251.186,165.359,250.778z
		 M162.909,254.839c0.77,0.019,1.425,1.35,2.068,1.985c0.648,0.641-0.388,1.345-2.008,1.345c-0.02,0-0.04,0-0.06-0.001
		c-0.02,0-0.04,0.001-0.06,0.001c-1.62,0-2.656-0.705-2.008-1.345C161.484,256.189,162.139,254.859,162.909,254.839z
		 M159.565,251.05c0.137-0.306,0.378-0.68,0.893-0.272c0.515,0.408-0.002,1.093-0.481,1.053
		C159.565,251.797,159.428,251.356,159.565,251.05z M156.541,248.161c0.55,0.034,0.549,1.084-0.035,1.155
		c-0.55,0.068-0.756-0.238-0.722-0.611C155.82,248.331,155.992,248.127,156.541,248.161z M155.167,251.186
		c-0.275,0.646-0.702,1.273-1.374,1.937c-0.309,0.306-0.55,0.034-0.447-0.374c0.103-0.408,0.275-1.257,0.825-2.073
		C154.72,249.86,155.442,250.54,155.167,251.186z M153.414,246.496c0.55-0.272,0.997,0.306,0.55,0.747
		c-0.447,0.442-1.065,0.884-1.512,0.748C152.006,247.855,152.957,246.722,153.414,246.496z M151.284,257.575l-0.011,0l-0.011,0
		c-0.825,0-1.409-0.646-1.512-1.563c-0.091-0.811,0.275-1.903,1.512-1.903l0.011,0.001l0.011-0.001c1.237,0,1.603,1.092,1.512,1.903
		C152.693,256.929,152.109,257.575,151.284,257.575z M152.178,262.672c0.101,0.368-0.429,0.571-0.905,0.578
		c-0.475-0.007-1.006-0.21-0.905-0.578c0.101-0.366,0.563-1.121,0.905-1.153C151.614,261.552,152.077,262.307,152.178,262.672z
		 M150.609,251.22c0-0.578,0-1.461,0.653-1.461l0.011,0l0.011,0c0.653,0,0.653,0.884,0.653,1.461c0,0.578-0.241,1.359-0.619,1.393
		l-0.046,0.001l-0.046-0.001C150.849,252.579,150.609,251.797,150.609,251.22z M151.261,245.578l0.011,0.001l0.011-0.001
		c0.894,0,1.546,0.204,1.374,0.544c-0.172,0.34-0.962,1.529-1.374,1.597l-0.011,0.001l-0.011-0.001
		c-0.412-0.068-1.203-1.257-1.374-1.597C149.715,245.782,150.368,245.578,151.261,245.578z M149.131,246.496
		c0.457,0.226,1.409,1.359,0.962,1.495c-0.447,0.136-1.065-0.306-1.512-0.748C148.134,246.802,148.581,246.224,149.131,246.496z
		 M148.375,250.676c0.55,0.816,0.721,1.665,0.825,2.073c0.103,0.408-0.137,0.68-0.447,0.374c-0.672-0.664-1.1-1.291-1.375-1.937
		C147.104,250.54,147.825,249.86,148.375,250.676z M146.004,248.161c0.55-0.034,0.722,0.17,0.756,0.544
		c0.035,0.374-0.172,0.679-0.722,0.611C145.455,249.245,145.454,248.195,146.004,248.161z M142.087,250.778
		c0.516-0.408,0.756-0.034,0.894,0.272s0,0.747-0.412,0.781C142.088,251.871,141.571,251.186,142.087,250.778z M139.636,254.839
		c0.77,0.019,1.425,1.35,2.068,1.985c0.648,0.641-0.389,1.345-2.008,1.345c-0.02,0-0.04,0-0.06-0.001c-0.02,0-0.04,0.001-0.06,0.001
		c-1.619,0-2.656-0.705-2.008-1.345C138.211,256.189,138.866,254.859,139.636,254.839z M136.293,251.05
		c0.137-0.306,0.378-0.68,0.893-0.272c0.515,0.408-0.002,1.093-0.481,1.053C136.293,251.797,136.155,251.356,136.293,251.05z
		 M133.268,248.161c0.55,0.034,0.55,1.084-0.034,1.155c-0.55,0.068-0.756-0.238-0.722-0.611
		C132.547,248.331,132.719,248.127,133.268,248.161z M131.894,251.186c-0.275,0.646-0.703,1.273-1.375,1.937
		c-0.309,0.306-0.55,0.034-0.447-0.374c0.103-0.408,0.275-1.257,0.825-2.073C131.447,249.86,132.169,250.54,131.894,251.186z
		 M130.142,246.496c0.55-0.272,0.997,0.306,0.55,0.747c-0.447,0.442-1.065,0.884-1.512,0.748
		C128.733,247.855,129.685,246.722,130.142,246.496z M128.011,257.575l-0.011,0l-0.011,0c-0.825,0-1.409-0.646-1.512-1.563
		c-0.091-0.811,0.275-1.903,1.512-1.903l0.011,0.001l0.011-0.001c1.237,0,1.603,1.092,1.512,1.903
		C129.42,256.929,128.836,257.575,128.011,257.575z M128.905,262.672c0.101,0.368-0.429,0.571-0.905,0.578
		c-0.475-0.007-1.006-0.21-0.905-0.578c0.101-0.366,0.563-1.121,0.905-1.153C128.342,261.552,128.804,262.307,128.905,262.672z
		 M127.336,251.22c0-0.578,0-1.461,0.653-1.461l0.011,0l0.011,0c0.653,0,0.653,0.884,0.653,1.461c0,0.578-0.241,1.359-0.618,1.393
		L128,252.614l-0.046-0.001C127.576,252.579,127.336,251.797,127.336,251.22z M127.989,245.578l0.011,0.001l0.011-0.001
		c0.893,0,1.546,0.204,1.375,0.544c-0.172,0.34-0.962,1.529-1.375,1.597L128,247.721l-0.011-0.001
		c-0.413-0.068-1.203-1.257-1.375-1.597C126.442,245.782,127.095,245.578,127.989,245.578z M125.858,246.496
		c0.457,0.226,1.409,1.359,0.962,1.495c-0.447,0.136-1.065-0.306-1.512-0.748S125.308,246.224,125.858,246.496z M125.102,250.676
		c0.55,0.816,0.722,1.665,0.825,2.073c0.103,0.408-0.137,0.68-0.447,0.374c-0.672-0.664-1.1-1.291-1.375-1.937
		C123.831,250.54,124.553,249.86,125.102,250.676z M122.731,248.161c0.55-0.034,0.722,0.17,0.756,0.544
		c0.034,0.374-0.172,0.679-0.722,0.611C122.182,249.245,122.181,248.195,122.731,248.161z M118.814,250.778
		c0.515-0.408,0.756-0.034,0.893,0.272c0.137,0.306,0,0.747-0.412,0.781C118.815,251.871,118.299,251.186,118.814,250.778z
		 M116.364,254.839c0.77,0.019,1.425,1.35,2.068,1.985c0.648,0.641-0.389,1.345-2.008,1.345c-0.02,0-0.04,0-0.06-0.001
		c-0.02,0-0.04,0.001-0.06,0.001c-1.619,0-2.656-0.705-2.008-1.345C114.939,256.189,115.593,254.859,116.364,254.839z
		 M113.02,251.05c0.137-0.306,0.378-0.68,0.894-0.272c0.515,0.408-0.002,1.093-0.481,1.053
		C113.02,251.797,112.882,251.356,113.02,251.05z M109.996,248.161c0.55,0.034,0.549,1.084-0.034,1.155
		c-0.55,0.068-0.756-0.238-0.721-0.611C109.274,248.331,109.446,248.127,109.996,248.161z M108.621,251.186
		c-0.275,0.646-0.702,1.273-1.374,1.937c-0.309,0.306-0.55,0.034-0.447-0.374c0.103-0.408,0.275-1.257,0.825-2.073
		C108.175,249.86,108.896,250.54,108.621,251.186z M106.869,246.496c0.55-0.272,0.996,0.306,0.55,0.747
		c-0.447,0.442-1.065,0.884-1.512,0.748C105.46,247.855,106.412,246.722,106.869,246.496z M104.739,257.575l-0.011,0l-0.011,0
		c-0.825,0-1.409-0.646-1.512-1.563c-0.091-0.811,0.275-1.903,1.512-1.903l0.011,0.001l0.011-0.001c1.237,0,1.603,1.092,1.512,1.903
		C106.147,256.929,105.563,257.575,104.739,257.575z M105.632,262.672c0.102,0.368-0.429,0.571-0.905,0.578
		c-0.476-0.007-1.006-0.21-0.905-0.578c0.101-0.366,0.563-1.121,0.905-1.153C105.069,261.552,105.531,262.307,105.632,262.672z
		 M104.063,251.22c0-0.578,0-1.461,0.653-1.461l0.011,0l0.011,0c0.653,0,0.653,0.884,0.653,1.461c0,0.578-0.241,1.359-0.619,1.393
		l-0.046,0.001l-0.046-0.001C104.304,252.579,104.063,251.797,104.063,251.22z M104.716,245.578l0.011,0.001l0.011-0.001
		c0.893,0,1.546,0.204,1.374,0.544c-0.172,0.34-0.962,1.529-1.374,1.597l-0.011,0.001l-0.011-0.001
		c-0.412-0.068-1.202-1.257-1.374-1.597C103.17,245.782,103.822,245.578,104.716,245.578z M102.586,246.496
		c0.457,0.226,1.409,1.359,0.962,1.495c-0.447,0.136-1.065-0.306-1.512-0.748C101.589,246.802,102.036,246.224,102.586,246.496z
		 M101.829,250.676c0.55,0.816,0.722,1.665,0.825,2.073c0.103,0.408-0.137,0.68-0.447,0.374c-0.672-0.664-1.099-1.291-1.374-1.937
		C100.558,250.54,101.28,249.86,101.829,250.676z M99.459,248.161c0.55-0.034,0.722,0.17,0.756,0.544
		c0.034,0.374-0.172,0.679-0.722,0.611C98.909,249.245,98.909,248.195,99.459,248.161z M95.541,250.778
		c0.516-0.408,0.756-0.034,0.893,0.272s0,0.747-0.412,0.781C95.543,251.871,95.026,251.186,95.541,250.778z M93.091,254.839
		c0.77,0.019,1.425,1.35,2.068,1.985c0.648,0.641-0.388,1.345-2.008,1.345c-0.02,0-0.04,0-0.06-0.001c-0.02,0-0.04,0.001-0.06,0.001
		c-1.62,0-2.656-0.705-2.008-1.345C91.666,256.189,92.321,254.859,93.091,254.839z M89.747,251.05
		c0.137-0.306,0.378-0.68,0.894-0.272c0.515,0.408-0.002,1.093-0.481,1.053C89.747,251.797,89.61,251.356,89.747,251.05z
		 M86.723,248.161c0.55,0.034,0.549,1.084-0.035,1.155c-0.55,0.068-0.756-0.238-0.722-0.611
		C86.002,248.331,86.174,248.127,86.723,248.161z M85.349,251.186c-0.275,0.646-0.703,1.273-1.375,1.937
		c-0.309,0.306-0.549,0.034-0.446-0.374c0.103-0.408,0.275-1.257,0.825-2.073C84.902,249.86,85.624,250.54,85.349,251.186z
		 M83.596,246.496c0.55-0.272,0.997,0.306,0.55,0.747c-0.447,0.442-1.065,0.884-1.512,0.748
		C82.188,247.855,83.139,246.722,83.596,246.496z M81.466,257.575l-0.011,0l-0.011,0c-0.825,0-1.409-0.646-1.512-1.563
		c-0.091-0.811,0.275-1.903,1.512-1.903l0.011,0.001l0.011-0.001c1.237,0,1.603,1.092,1.512,1.903
		C82.875,256.929,82.29,257.575,81.466,257.575z M82.359,262.672c0.102,0.368-0.429,0.571-0.905,0.578
		c-0.475-0.007-1.006-0.21-0.904-0.578c0.101-0.366,0.563-1.121,0.904-1.153C81.796,261.552,82.258,262.307,82.359,262.672z
		 M80.79,251.22c0-0.578,0-1.461,0.653-1.461l0.011,0l0.011,0c0.653,0,0.653,0.884,0.653,1.461c0,0.578-0.241,1.359-0.618,1.393
		l-0.046,0.001l-0.046-0.001C81.031,252.579,80.79,251.797,80.79,251.22z M81.443,245.578l0.011,0.001l0.011-0.001
		c0.893,0,1.546,0.204,1.374,0.544c-0.172,0.34-0.962,1.529-1.374,1.597l-0.011,0.001l-0.011-0.001
		c-0.412-0.068-1.203-1.257-1.374-1.597C79.897,245.782,80.55,245.578,81.443,245.578z M79.313,246.496
		c0.457,0.226,1.409,1.359,0.962,1.495c-0.447,0.136-1.065-0.306-1.512-0.748C78.316,246.802,78.763,246.224,79.313,246.496z
		 M78.557,250.676c0.55,0.816,0.721,1.665,0.825,2.073c0.103,0.408-0.137,0.68-0.447,0.374c-0.672-0.664-1.1-1.291-1.375-1.937
		C77.285,250.54,78.007,249.86,78.557,250.676z M76.186,248.161c0.55-0.034,0.722,0.17,0.756,0.544
		c0.035,0.374-0.172,0.679-0.722,0.611C75.637,249.245,75.636,248.195,76.186,248.161z M72.269,250.778
		c0.515-0.408,0.756-0.034,0.894,0.272c0.137,0.306,0,0.747-0.412,0.781C72.27,251.871,71.753,251.186,72.269,250.778z
		 M69.818,254.839c0.77,0.019,1.425,1.35,2.068,1.985c0.648,0.641-0.389,1.345-2.008,1.345c-0.02,0-0.04,0-0.06-0.001
		c-0.02,0-0.04,0.001-0.06,0.001c-1.619,0-2.656-0.705-2.008-1.345C68.393,256.189,69.048,254.859,69.818,254.839z M66.474,251.05
		c0.137-0.306,0.378-0.68,0.893-0.272c0.515,0.408-0.002,1.093-0.481,1.053C66.474,251.797,66.337,251.356,66.474,251.05z
		 M63.45,248.161c0.55,0.034,0.549,1.084-0.034,1.155c-0.55,0.068-0.756-0.238-0.722-0.611
		C62.729,248.331,62.901,248.127,63.45,248.161z M62.076,251.186c-0.275,0.646-0.703,1.273-1.375,1.937
		c-0.309,0.306-0.55,0.034-0.447-0.374c0.103-0.408,0.275-1.257,0.825-2.073C61.629,249.86,62.351,250.54,62.076,251.186z
		 M60.324,246.496c0.55-0.272,0.996,0.306,0.55,0.747c-0.447,0.442-1.065,0.884-1.512,0.748
		C58.915,247.855,59.867,246.722,60.324,246.496z M58.193,257.575l-0.011,0l-0.011,0c-0.825,0-1.409-0.646-1.512-1.563
		c-0.091-0.811,0.275-1.903,1.512-1.903l0.011,0.001l0.011-0.001c1.237,0,1.603,1.092,1.512,1.903
		C59.602,256.929,59.018,257.575,58.193,257.575z M59.086,262.672c0.102,0.368-0.429,0.571-0.904,0.578
		c-0.475-0.007-1.006-0.21-0.905-0.578c0.101-0.366,0.563-1.121,0.905-1.153C58.523,261.552,58.986,262.307,59.086,262.672z
		 M57.518,251.22c0-0.578,0-1.461,0.653-1.461l0.011,0l0.011,0c0.653,0,0.653,0.884,0.653,1.461c0,0.578-0.241,1.359-0.618,1.393
		l-0.046,0.001l-0.046-0.001C57.758,252.579,57.518,251.797,57.518,251.22z M58.171,245.578l0.011,0.001l0.011-0.001
		c0.893,0,1.546,0.204,1.375,0.544c-0.172,0.34-0.962,1.529-1.375,1.597l-0.011,0.001l-0.011-0.001
		c-0.412-0.068-1.203-1.257-1.375-1.597C56.624,245.782,57.277,245.578,58.171,245.578z M56.04,246.496
		c0.457,0.226,1.409,1.359,0.962,1.495c-0.447,0.136-1.065-0.306-1.512-0.748C55.043,246.802,55.49,246.224,56.04,246.496z
		 M55.284,250.676c0.55,0.816,0.722,1.665,0.825,2.073c0.103,0.408-0.138,0.68-0.447,0.374c-0.672-0.664-1.1-1.291-1.375-1.937
		C54.013,250.54,54.734,249.86,55.284,250.676z M52.913,248.161c0.55-0.034,0.722,0.17,0.756,0.544
		c0.034,0.374-0.172,0.679-0.722,0.611C52.364,249.245,52.363,248.195,52.913,248.161z M48.996,250.778
		c0.515-0.408,0.756-0.034,0.893,0.272c0.138,0.306,0,0.747-0.412,0.781C48.997,251.871,48.48,251.186,48.996,250.778z
		 M46.546,254.839c0.77,0.019,1.425,1.35,2.068,1.985c0.648,0.641-0.389,1.345-2.008,1.345c-0.02,0-0.04,0-0.06-0.001
		c-0.02,0-0.04,0.001-0.06,0.001c-1.619,0-2.656-0.705-2.008-1.345C45.12,256.189,45.775,254.859,46.546,254.839z M43.202,251.05
		c0.137-0.306,0.378-0.68,0.893-0.272c0.515,0.408-0.002,1.093-0.481,1.053C43.202,251.797,43.064,251.356,43.202,251.05z
		 M40.178,248.161c0.55,0.034,0.55,1.084-0.034,1.155c-0.55,0.068-0.756-0.238-0.722-0.611
		C39.456,248.331,39.628,248.127,40.178,248.161z M38.803,251.186c-0.275,0.646-0.702,1.273-1.374,1.937
		c-0.31,0.306-0.55,0.034-0.447-0.374c0.103-0.408,0.275-1.257,0.825-2.073C38.356,249.86,39.078,250.54,38.803,251.186z
		 M37.051,246.496c0.55-0.272,0.996,0.306,0.55,0.747c-0.447,0.442-1.065,0.884-1.512,0.748
		C35.642,247.855,36.594,246.722,37.051,246.496z M34.92,257.575l-0.011,0l-0.011,0c-0.825,0-1.409-0.646-1.512-1.563
		c-0.091-0.811,0.275-1.903,1.512-1.903l0.011,0.001l0.011-0.001c1.237,0,1.603,1.092,1.512,1.903
		C36.329,256.929,35.745,257.575,34.92,257.575z M35.814,262.672c0.101,0.368-0.429,0.571-0.905,0.578
		c-0.475-0.007-1.006-0.21-0.905-0.578c0.101-0.366,0.563-1.121,0.905-1.153C35.251,261.552,35.713,262.307,35.814,262.672z
		 M34.245,251.22c0-0.578,0-1.461,0.653-1.461l0.011,0l0.011,0c0.653,0,0.653,0.884,0.653,1.461c0,0.578-0.24,1.359-0.619,1.393
		l-0.046,0.001l-0.046-0.001C34.485,252.579,34.245,251.797,34.245,251.22z M34.898,245.578l0.011,0.001l0.011-0.001
		c0.894,0,1.546,0.204,1.375,0.544c-0.172,0.34-0.962,1.529-1.375,1.597l-0.011,0.001l-0.011-0.001
		c-0.413-0.068-1.202-1.257-1.375-1.597C33.351,245.782,34.004,245.578,34.898,245.578z M32.767,246.496
		c0.457,0.226,1.409,1.359,0.962,1.495c-0.447,0.136-1.065-0.306-1.512-0.748C31.771,246.802,32.218,246.224,32.767,246.496z
		 M32.011,250.676c0.55,0.816,0.722,1.665,0.825,2.073c0.103,0.408-0.137,0.68-0.447,0.374c-0.672-0.664-1.099-1.291-1.374-1.937
		C30.74,250.54,31.462,249.86,32.011,250.676z M29.64,248.161c0.55-0.034,0.722,0.17,0.756,0.544
		c0.034,0.374-0.172,0.679-0.721,0.611C29.091,249.245,29.09,248.195,29.64,248.161z M25.723,250.778
		c0.515-0.408,0.756-0.034,0.893,0.272c0.138,0.306,0,0.747-0.412,0.781C25.725,251.871,25.208,251.186,25.723,250.778z
		 M23.273,254.839c0.77,0.019,1.425,1.35,2.068,1.985c0.648,0.641-0.389,1.345-2.008,1.345c-0.02,0-0.04,0-0.06-0.001
		c-0.02,0-0.04,0.001-0.06,0.001c-1.619,0-2.656-0.705-2.008-1.345C21.848,256.189,22.503,254.859,23.273,254.839z M19.929,251.05
		c0.138-0.306,0.378-0.68,0.893-0.272c0.515,0.408-0.002,1.093-0.481,1.053C19.929,251.797,19.791,251.356,19.929,251.05z
		 M16.905,248.161c0.55,0.034,0.549,1.084-0.034,1.155c-0.55,0.068-0.756-0.238-0.722-0.611
		C16.183,248.331,16.355,248.127,16.905,248.161z M15.531,251.186c-0.275,0.646-0.703,1.273-1.375,1.937
		c-0.309,0.306-0.55,0.034-0.446-0.374c0.103-0.408,0.275-1.257,0.825-2.073C15.084,249.86,15.805,250.54,15.531,251.186z
		 M13.778,246.496c0.55-0.272,0.997,0.306,0.55,0.747s-1.065,0.884-1.512,0.748C12.369,247.855,13.321,246.722,13.778,246.496z
		 M11.648,257.575l-0.011,0l-0.011,0c-0.825,0-1.409-0.646-1.512-1.563c-0.091-0.811,0.275-1.903,1.512-1.903l0.011,0.001
		l0.011-0.001c1.237,0,1.603,1.092,1.512,1.903C13.057,256.929,12.472,257.575,11.648,257.575z M12.541,262.672
		c0.102,0.368-0.429,0.571-0.905,0.578c-0.475-0.007-1.006-0.21-0.905-0.578c0.101-0.366,0.563-1.121,0.905-1.153
		C11.978,261.552,12.44,262.307,12.541,262.672z M10.972,251.22c0-0.578,0-1.461,0.653-1.461l0.011,0l0.011,0
		c0.653,0,0.653,0.884,0.653,1.461c0,0.578-0.24,1.359-0.618,1.393l-0.046,0.001l-0.046-0.001
		C11.213,252.579,10.972,251.797,10.972,251.22z M11.625,245.578l0.011,0.001l0.011-0.001c0.893,0,1.546,0.204,1.374,0.544
		c-0.172,0.34-0.962,1.529-1.374,1.597l-0.011,0.001l-0.011-0.001c-0.412-0.068-1.203-1.257-1.374-1.597
		C10.079,245.782,10.732,245.578,11.625,245.578z M9.495,246.496c0.457,0.226,1.409,1.359,0.962,1.495
		c-0.447,0.136-1.065-0.306-1.512-0.748C8.498,246.802,8.945,246.224,9.495,246.496z M8.739,250.676
		c0.55,0.816,0.722,1.665,0.825,2.073c0.103,0.408-0.137,0.68-0.447,0.374c-0.672-0.664-1.1-1.291-1.374-1.937
		C7.467,250.54,8.189,249.86,8.739,250.676z M6.368,248.161c0.55-0.034,0.722,0.17,0.756,0.544c0.034,0.374-0.172,0.679-0.722,0.611
		C5.819,249.245,5.818,248.195,6.368,248.161z M2.45,250.778c0.516-0.408,0.756-0.034,0.894,0.272c0.137,0.306,0,0.747-0.413,0.781
		C2.452,251.871,1.935,251.186,2.45,250.778z M1.939,265.025c-0.842,0.128-0.972-0.128-0.712-0.833
		c0.119-0.324,1.101-3.524,2.073-3.331c0.972,0.192,1.749,0.577,1.295,1.73C4.141,263.744,2.781,264.897,1.939,265.025z
		 M7.38,265.153c-0.324,0.448-1.296,0.448-2.397,0.577c-1.101,0.128-1.749,0.128-1.425-0.321c0.16-0.221,1.879-1.986,2.527-1.986
		C6.732,263.424,7.704,264.705,7.38,265.153z M7.502,259.308c-0.859,0.272-1.272-0.17-1.581-0.85
		c-0.309-0.68,0.412-1.733,1.684-0.986C8.031,257.724,8.361,259.036,7.502,259.308z M7.398,255.094
		c-0.94-0.186-2.68-1.223-2.955-1.869c-0.275-0.646,0.103-1.597,1.168-0.952c1.065,0.646,1.718,1.393,2.165,1.971
		C8.223,254.822,8.258,255.264,7.398,255.094z M9.838,261.143c-0.206,0.612-1.615,0.306-1.272-0.646
		c0.199-0.55,1.203-1.495,1.512-1.223C10.388,259.546,10.044,260.531,9.838,261.143z M11.682,267.328l-0.046-0.001l-0.046,0.001
		c-0.825,0-1.546-0.374-1.374-0.713c0.172-0.34,0.928-0.85,1.374-0.85l0.046,0.001l0.046-0.001c0.447,0,1.203,0.509,1.375,0.85
		C13.228,266.955,12.507,267.328,11.682,267.328z M13.434,261.143c-0.206-0.612-0.55-1.597-0.24-1.869
		c0.309-0.272,1.313,0.673,1.512,1.223C15.05,261.449,13.641,261.755,13.434,261.143z M15.496,254.245
		c0.447-0.578,1.1-1.326,2.165-1.971s1.443,0.306,1.168,0.952c-0.275,0.646-2.015,1.683-2.955,1.869
		C15.015,255.264,15.05,254.822,15.496,254.245z M15.668,257.473c1.271-0.747,1.993,0.306,1.684,0.986
		c-0.309,0.679-0.722,1.122-1.581,0.85C14.912,259.036,15.242,257.724,15.668,257.473z M18.289,265.73
		c-1.101-0.128-2.073-0.128-2.397-0.577c-0.324-0.448,0.648-1.73,1.296-1.73c0.648,0,2.366,1.765,2.526,1.986
		C20.038,265.858,19.39,265.858,18.289,265.73z M21.334,265.025c-0.842-0.128-2.202-1.281-2.656-2.434
		c-0.453-1.153,0.324-1.538,1.296-1.73c0.972-0.192,1.954,3.007,2.073,3.331C22.306,264.897,22.176,265.153,21.334,265.025z
		 M23.273,262.127c-0.979-0.329-1.092-1.704,0-1.715C24.364,260.423,24.252,261.797,23.273,262.127z M25.211,265.025
		c-0.842,0.128-0.972-0.128-0.713-0.833c0.119-0.324,1.101-3.524,2.073-3.331c0.972,0.192,1.749,0.577,1.296,1.73
		C27.414,263.744,26.053,264.897,25.211,265.025z M30.653,265.153c-0.324,0.448-1.295,0.448-2.397,0.577
		c-1.101,0.128-1.749,0.128-1.425-0.321c0.16-0.221,1.879-1.986,2.527-1.986C30.005,263.424,30.977,264.705,30.653,265.153z
		 M30.774,259.308c-0.859,0.272-1.271-0.17-1.581-0.85c-0.309-0.68,0.413-1.733,1.684-0.986
		C31.303,257.724,31.633,259.036,30.774,259.308z M30.671,255.094c-0.94-0.186-2.68-1.223-2.955-1.869
		c-0.274-0.646,0.103-1.597,1.169-0.952c1.065,0.646,1.718,1.393,2.165,1.971C31.496,254.822,31.53,255.264,30.671,255.094z
		 M33.111,261.143c-0.206,0.612-1.615,0.306-1.271-0.646c0.199-0.55,1.202-1.495,1.512-1.223
		C33.661,259.546,33.317,260.531,33.111,261.143z M34.955,267.328l-0.046-0.001l-0.046,0.001c-0.825,0-1.546-0.374-1.375-0.713
		c0.172-0.34,0.928-0.85,1.375-0.85l0.046,0.001l0.046-0.001c0.447,0,1.203,0.509,1.375,0.85
		C36.501,266.955,35.779,267.328,34.955,267.328z M36.707,261.143c-0.206-0.612-0.55-1.597-0.241-1.869
		c0.309-0.272,1.313,0.673,1.512,1.223C38.322,261.449,36.913,261.755,36.707,261.143z M38.769,254.245
		c0.446-0.578,1.099-1.326,2.165-1.971c1.065-0.646,1.443,0.306,1.169,0.952c-0.275,0.646-2.016,1.683-2.955,1.869
		C38.288,255.264,38.322,254.822,38.769,254.245z M38.941,257.473c1.271-0.747,1.993,0.306,1.684,0.986
		c-0.309,0.679-0.722,1.122-1.581,0.85C38.185,259.036,38.515,257.724,38.941,257.473z M41.562,265.73
		c-1.101-0.128-2.073-0.128-2.397-0.577c-0.324-0.448,0.648-1.73,1.296-1.73c0.648,0,2.367,1.765,2.527,1.986
		C43.311,265.858,42.663,265.858,41.562,265.73z M44.607,265.025c-0.842-0.128-2.203-1.281-2.656-2.434
		c-0.454-1.153,0.324-1.538,1.296-1.73c0.972-0.192,1.954,3.007,2.073,3.331C45.578,264.897,45.449,265.153,44.607,265.025z
		 M46.546,262.127c-0.98-0.329-1.092-1.704,0-1.715C47.637,260.423,47.525,261.797,46.546,262.127z M48.484,265.025
		c-0.842,0.128-0.972-0.128-0.713-0.833c0.119-0.324,1.101-3.524,2.073-3.331c0.972,0.192,1.749,0.577,1.296,1.73
		C50.687,263.744,49.326,264.897,48.484,265.025z M53.925,265.153c-0.324,0.448-1.295,0.448-2.397,0.577
		c-1.101,0.128-1.749,0.128-1.425-0.321c0.16-0.221,1.879-1.986,2.527-1.986C53.278,263.424,54.25,264.705,53.925,265.153z
		 M54.047,259.308c-0.859,0.272-1.271-0.17-1.581-0.85c-0.309-0.68,0.412-1.733,1.684-0.986
		C54.576,257.724,54.906,259.036,54.047,259.308z M53.944,255.094c-0.94-0.186-2.68-1.223-2.955-1.869
		c-0.275-0.646,0.103-1.597,1.168-0.952s1.718,1.393,2.165,1.971C54.769,254.822,54.803,255.264,53.944,255.094z M56.384,261.143
		c-0.206,0.612-1.615,0.306-1.271-0.646c0.199-0.55,1.203-1.495,1.512-1.223C56.933,259.546,56.59,260.531,56.384,261.143z
		 M58.228,267.328l-0.046-0.001l-0.046,0.001c-0.825,0-1.546-0.374-1.375-0.713c0.172-0.34,0.928-0.85,1.375-0.85l0.046,0.001
		l0.046-0.001c0.446,0,1.203,0.509,1.374,0.85C59.774,266.955,59.052,267.328,58.228,267.328z M59.98,261.143
		c-0.206-0.612-0.549-1.597-0.24-1.869c0.309-0.272,1.313,0.673,1.512,1.223C61.595,261.449,60.186,261.755,59.98,261.143z
		 M62.042,254.245c0.447-0.578,1.1-1.326,2.165-1.971c1.065-0.646,1.443,0.306,1.169,0.952c-0.275,0.646-2.015,1.683-2.955,1.869
		C61.561,255.264,61.595,254.822,62.042,254.245z M62.213,257.473c1.271-0.747,1.993,0.306,1.684,0.986
		c-0.309,0.679-0.722,1.122-1.581,0.85C61.457,259.036,61.787,257.724,62.213,257.473z M64.835,265.73
		c-1.101-0.128-2.073-0.128-2.397-0.577c-0.324-0.448,0.648-1.73,1.296-1.73c0.648,0,2.367,1.765,2.526,1.986
		C66.584,265.858,65.936,265.858,64.835,265.73z M67.88,265.025c-0.842-0.128-2.202-1.281-2.656-2.434
		c-0.454-1.153,0.324-1.538,1.296-1.73c0.972-0.192,1.954,3.007,2.073,3.331C68.851,264.897,68.721,265.153,67.88,265.025z
		 M69.818,262.127c-0.979-0.329-1.091-1.704,0-1.715C70.91,260.423,70.797,261.797,69.818,262.127z M71.757,265.025
		c-0.842,0.128-0.972-0.128-0.712-0.833c0.119-0.324,1.101-3.524,2.073-3.331c0.972,0.192,1.749,0.577,1.295,1.73
		C73.959,263.744,72.599,264.897,71.757,265.025z M77.198,265.153c-0.324,0.448-1.296,0.448-2.397,0.577
		c-1.101,0.128-1.749,0.128-1.425-0.321c0.16-0.221,1.878-1.986,2.526-1.986C76.55,263.424,77.522,264.705,77.198,265.153z
		 M77.32,259.308c-0.859,0.272-1.271-0.17-1.581-0.85c-0.309-0.68,0.412-1.733,1.684-0.986
		C77.849,257.724,78.179,259.036,77.32,259.308z M77.217,255.094c-0.94-0.186-2.68-1.223-2.955-1.869
		c-0.275-0.646,0.103-1.597,1.168-0.952c1.065,0.646,1.718,1.393,2.165,1.971C78.041,254.822,78.076,255.264,77.217,255.094z
		 M79.657,261.143c-0.206,0.612-1.615,0.306-1.272-0.646c0.199-0.55,1.203-1.495,1.512-1.223
		C80.206,259.546,79.863,260.531,79.657,261.143z M81.5,267.328l-0.046-0.001l-0.046,0.001c-0.825,0-1.546-0.374-1.374-0.713
		c0.172-0.34,0.928-0.85,1.374-0.85l0.046,0.001l0.046-0.001c0.447,0,1.203,0.509,1.375,0.85
		C83.047,266.955,82.325,267.328,81.5,267.328z M83.253,261.143c-0.206-0.612-0.55-1.597-0.241-1.869
		c0.309-0.272,1.313,0.673,1.512,1.223C84.868,261.449,83.459,261.755,83.253,261.143z M85.314,254.245
		c0.447-0.578,1.1-1.326,2.165-1.971c1.065-0.646,1.443,0.306,1.168,0.952c-0.275,0.646-2.015,1.683-2.955,1.869
		C84.833,255.264,84.868,254.822,85.314,254.245z M85.486,257.473c1.271-0.747,1.993,0.306,1.684,0.986
		c-0.309,0.679-0.721,1.122-1.581,0.85C84.73,259.036,85.06,257.724,85.486,257.473z M88.108,265.73
		c-1.101-0.128-2.073-0.128-2.397-0.577c-0.324-0.448,0.648-1.73,1.296-1.73c0.648,0,2.367,1.765,2.526,1.986
		C89.857,265.858,89.209,265.858,88.108,265.73z M91.152,265.025c-0.842-0.128-2.202-1.281-2.656-2.434
		c-0.453-1.153,0.324-1.538,1.296-1.73c0.972-0.192,1.954,3.007,2.073,3.331C92.124,264.897,91.994,265.153,91.152,265.025z
		 M93.091,262.127c-0.979-0.329-1.092-1.704,0-1.715C94.182,260.423,94.07,261.797,93.091,262.127z M95.03,265.025
		c-0.842,0.128-0.972-0.128-0.713-0.833c0.119-0.324,1.101-3.524,2.073-3.331c0.972,0.192,1.749,0.577,1.295,1.73
		C97.232,263.744,95.871,264.897,95.03,265.025z M100.471,265.153c-0.324,0.448-1.296,0.448-2.397,0.577
		c-1.101,0.128-1.749,0.128-1.425-0.321c0.16-0.221,1.879-1.986,2.526-1.986C99.823,263.424,100.795,264.705,100.471,265.153z
		 M100.593,259.308c-0.859,0.272-1.272-0.17-1.581-0.85c-0.309-0.68,0.412-1.733,1.684-0.986
		C101.121,257.724,101.451,259.036,100.593,259.308z M100.489,255.094c-0.94-0.186-2.68-1.223-2.955-1.869
		c-0.275-0.646,0.103-1.597,1.168-0.952c1.065,0.646,1.718,1.393,2.165,1.971C101.314,254.822,101.348,255.264,100.489,255.094z
		 M102.929,261.143c-0.206,0.612-1.615,0.306-1.271-0.646c0.199-0.55,1.202-1.495,1.512-1.223
		C103.479,259.546,103.135,260.531,102.929,261.143z M104.773,267.328l-0.046-0.001l-0.046,0.001c-0.825,0-1.546-0.374-1.375-0.713
		c0.172-0.34,0.928-0.85,1.375-0.85l0.046,0.001l0.046-0.001c0.447,0,1.203,0.509,1.375,0.85
		C106.319,266.955,105.598,267.328,104.773,267.328z M106.525,261.143c-0.206-0.612-0.55-1.597-0.241-1.869
		c0.309-0.272,1.313,0.673,1.512,1.223C108.14,261.449,106.731,261.755,106.525,261.143z M108.587,254.245
		c0.447-0.578,1.1-1.326,2.165-1.971s1.443,0.306,1.168,0.952c-0.275,0.646-2.015,1.683-2.955,1.869
		C108.106,255.264,108.14,254.822,108.587,254.245z M108.759,257.473c1.271-0.747,1.993,0.306,1.684,0.986
		c-0.309,0.679-0.722,1.122-1.581,0.85C108.003,259.036,108.333,257.724,108.759,257.473z M111.38,265.73
		c-1.101-0.128-2.073-0.128-2.397-0.577c-0.324-0.448,0.648-1.73,1.296-1.73s2.367,1.765,2.526,1.986
		C113.129,265.858,112.482,265.858,111.38,265.73z M114.425,265.025c-0.842-0.128-2.203-1.281-2.656-2.434
		c-0.453-1.153,0.324-1.538,1.296-1.73c0.971-0.192,1.954,3.007,2.073,3.331C115.396,264.897,115.267,265.153,114.425,265.025z
		 M116.364,262.127c-0.979-0.329-1.092-1.704,0-1.715C117.455,260.423,117.343,261.797,116.364,262.127z M118.302,265.025
		c-0.842,0.128-0.972-0.128-0.713-0.833c0.119-0.324,1.101-3.524,2.073-3.331c0.972,0.192,1.749,0.577,1.296,1.73
		C120.505,263.744,119.144,264.897,118.302,265.025z M123.744,265.153c-0.324,0.448-1.295,0.448-2.397,0.577
		c-1.101,0.128-1.749,0.128-1.425-0.321c0.16-0.221,1.879-1.986,2.526-1.986C123.096,263.424,124.068,264.705,123.744,265.153z
		 M123.865,259.308c-0.859,0.272-1.271-0.17-1.581-0.85c-0.309-0.68,0.412-1.733,1.684-0.986
		C124.394,257.724,124.724,259.036,123.865,259.308z M123.762,255.094c-0.94-0.186-2.68-1.223-2.955-1.869
		c-0.275-0.646,0.103-1.597,1.168-0.952c1.065,0.646,1.718,1.393,2.165,1.971C124.587,254.822,124.621,255.264,123.762,255.094z
		 M126.202,261.143c-0.206,0.612-1.615,0.306-1.271-0.646c0.199-0.55,1.203-1.495,1.512-1.223
		C126.752,259.546,126.408,260.531,126.202,261.143z M128.046,267.328L128,267.328l-0.046,0.001c-0.825,0-1.546-0.374-1.375-0.713
		c0.172-0.34,0.928-0.85,1.375-0.85l0.046,0.001l0.046-0.001c0.447,0,1.203,0.509,1.375,0.85
		C129.592,266.955,128.87,267.328,128.046,267.328z M129.798,261.143c-0.206-0.612-0.55-1.597-0.241-1.869
		c0.309-0.272,1.313,0.673,1.512,1.223C131.413,261.449,130.004,261.755,129.798,261.143z M131.86,254.245
		c0.447-0.578,1.1-1.326,2.165-1.971c1.065-0.646,1.443,0.306,1.169,0.952c-0.275,0.646-2.016,1.683-2.955,1.869
		C131.379,255.264,131.413,254.822,131.86,254.245z M132.032,257.473c1.271-0.747,1.993,0.306,1.684,0.986
		c-0.309,0.679-0.722,1.122-1.58,0.85C131.276,259.036,131.606,257.724,132.032,257.473z M134.653,265.73
		c-1.101-0.128-2.073-0.128-2.397-0.577c-0.324-0.448,0.648-1.73,1.296-1.73c0.648,0,2.367,1.765,2.527,1.986
		C136.402,265.858,135.754,265.858,134.653,265.73z M137.698,265.025c-0.842-0.128-2.202-1.281-2.656-2.434
		c-0.453-1.153,0.324-1.538,1.296-1.73c0.972-0.192,1.953,3.007,2.073,3.331C138.669,264.897,138.54,265.153,137.698,265.025z
		 M139.636,262.127c-0.979-0.329-1.091-1.704,0-1.715C140.728,260.423,140.616,261.797,139.636,262.127z M141.575,265.025
		c-0.842,0.128-0.972-0.128-0.712-0.833c0.119-0.324,1.101-3.524,2.073-3.331c0.972,0.192,1.749,0.577,1.296,1.73
		C143.778,263.744,142.417,264.897,141.575,265.025z M147.016,265.153c-0.324,0.448-1.296,0.448-2.397,0.577
		c-1.101,0.128-1.749,0.128-1.425-0.321c0.16-0.221,1.879-1.986,2.527-1.986C146.368,263.424,147.34,264.705,147.016,265.153z
		 M147.138,259.308c-0.859,0.272-1.271-0.17-1.581-0.85c-0.309-0.68,0.412-1.733,1.684-0.986
		C147.667,257.724,147.997,259.036,147.138,259.308z M147.035,255.094c-0.94-0.186-2.68-1.223-2.955-1.869
		c-0.275-0.646,0.103-1.597,1.168-0.952c1.065,0.646,1.718,1.393,2.165,1.971C147.859,254.822,147.894,255.264,147.035,255.094z
		 M149.475,261.143c-0.206,0.612-1.615,0.306-1.271-0.646c0.199-0.55,1.203-1.495,1.512-1.223
		C150.025,259.546,149.681,260.531,149.475,261.143z M151.318,267.328l-0.046-0.001l-0.046,0.001c-0.825,0-1.547-0.374-1.375-0.713
		c0.172-0.34,0.928-0.85,1.375-0.85l0.046,0.001l0.046-0.001c0.447,0,1.203,0.509,1.375,0.85
		C152.865,266.955,152.143,267.328,151.318,267.328z M153.071,261.143c-0.206-0.612-0.55-1.597-0.241-1.869
		c0.309-0.272,1.313,0.673,1.512,1.223C154.686,261.449,153.277,261.755,153.071,261.143z M155.132,254.245
		c0.447-0.578,1.1-1.326,2.165-1.971c1.065-0.646,1.443,0.306,1.168,0.952c-0.275,0.646-2.015,1.683-2.955,1.869
		C154.651,255.264,154.686,254.822,155.132,254.245z M155.304,257.473c1.272-0.747,1.993,0.306,1.684,0.986
		c-0.309,0.679-0.722,1.122-1.581,0.85C154.548,259.036,154.878,257.724,155.304,257.473z M157.926,265.73
		c-1.101-0.128-2.073-0.128-2.397-0.577c-0.324-0.448,0.648-1.73,1.296-1.73c0.648,0,2.367,1.765,2.526,1.986
		C159.675,265.858,159.027,265.858,157.926,265.73z M160.97,265.025c-0.842-0.128-2.202-1.281-2.656-2.434
		c-0.453-1.153,0.324-1.538,1.296-1.73c0.972-0.192,1.954,3.007,2.073,3.331C161.942,264.897,161.813,265.153,160.97,265.025z
		 M162.909,262.127c-0.979-0.329-1.092-1.704,0-1.715C164.001,260.423,163.888,261.797,162.909,262.127z M164.848,265.025
		c-0.842,0.128-0.972-0.128-0.713-0.833c0.119-0.324,1.101-3.524,2.073-3.331c0.972,0.192,1.749,0.577,1.296,1.73
		C167.05,263.744,165.69,264.897,164.848,265.025z M170.289,265.153c-0.324,0.448-1.296,0.448-2.397,0.577
		c-1.101,0.128-1.749,0.128-1.425-0.321c0.16-0.221,1.879-1.986,2.526-1.986C169.641,263.424,170.613,264.705,170.289,265.153z
		 M170.411,259.308c-0.859,0.272-1.272-0.17-1.581-0.85c-0.31-0.68,0.412-1.733,1.684-0.986
		C170.94,257.724,171.27,259.036,170.411,259.308z M170.308,255.094c-0.94-0.186-2.68-1.223-2.955-1.869
		c-0.275-0.646,0.103-1.597,1.168-0.952c1.066,0.646,1.718,1.393,2.165,1.971C171.132,254.822,171.167,255.264,170.308,255.094z
		 M172.747,261.143c-0.206,0.612-1.615,0.306-1.271-0.646c0.199-0.55,1.203-1.495,1.512-1.223
		C173.297,259.546,172.953,260.531,172.747,261.143z M174.591,267.328l-0.045-0.001l-0.046,0.001c-0.825,0-1.547-0.374-1.375-0.713
		c0.172-0.34,0.928-0.85,1.375-0.85l0.046,0.001l0.045-0.001c0.447,0,1.203,0.509,1.375,0.85
		C176.137,266.955,175.416,267.328,174.591,267.328z M176.343,261.143c-0.206-0.612-0.55-1.597-0.24-1.869
		c0.309-0.272,1.313,0.673,1.512,1.223C177.959,261.449,176.55,261.755,176.343,261.143z M178.405,254.245
		c0.447-0.578,1.1-1.326,2.165-1.971c1.065-0.646,1.443,0.306,1.168,0.952c-0.275,0.646-2.015,1.683-2.955,1.869
		C177.924,255.264,177.959,254.822,178.405,254.245z M178.577,257.473c1.271-0.747,1.993,0.306,1.684,0.986
		c-0.309,0.679-0.722,1.122-1.581,0.85C177.821,259.036,178.151,257.724,178.577,257.473z M181.199,265.73
		c-1.101-0.128-2.073-0.128-2.397-0.577c-0.324-0.448,0.648-1.73,1.296-1.73c0.648,0,2.367,1.765,2.526,1.986
		C182.947,265.858,182.3,265.858,181.199,265.73z M184.243,265.025c-0.842-0.128-2.203-1.281-2.656-2.434
		c-0.454-1.153,0.324-1.538,1.296-1.73c0.971-0.192,1.954,3.007,2.073,3.331C185.215,264.897,185.085,265.153,184.243,265.025z
		 M186.182,262.127c-0.979-0.329-1.092-1.704,0-1.715C187.273,260.423,187.161,261.797,186.182,262.127z M188.12,265.025
		c-0.842,0.128-0.972-0.128-0.713-0.833c0.119-0.324,1.101-3.524,2.073-3.331c0.972,0.192,1.749,0.577,1.296,1.73
		C190.323,263.744,188.962,264.897,188.12,265.025z M193.562,265.153c-0.324,0.448-1.296,0.448-2.397,0.577
		c-1.101,0.128-1.749,0.128-1.425-0.321c0.16-0.221,1.878-1.986,2.526-1.986C192.914,263.424,193.886,264.705,193.562,265.153z
		 M193.684,259.308c-0.859,0.272-1.271-0.17-1.581-0.85c-0.309-0.68,0.412-1.733,1.684-0.986
		C194.212,257.724,194.542,259.036,193.684,259.308z M193.58,255.094c-0.94-0.186-2.68-1.223-2.955-1.869
		c-0.275-0.646,0.103-1.597,1.168-0.952c1.065,0.646,1.718,1.393,2.165,1.971C194.405,254.822,194.439,255.264,193.58,255.094z
		 M196.02,261.143c-0.206,0.612-1.615,0.306-1.271-0.646c0.199-0.55,1.203-1.495,1.512-1.223
		C196.57,259.546,196.226,260.531,196.02,261.143z M197.864,267.328l-0.046-0.001l-0.046,0.001c-0.825,0-1.546-0.374-1.374-0.713
		c0.172-0.34,0.928-0.85,1.374-0.85l0.046,0.001l0.046-0.001c0.447,0,1.203,0.509,1.375,0.85
		C199.41,266.955,198.688,267.328,197.864,267.328z M199.616,261.143c-0.206-0.612-0.55-1.597-0.24-1.869
		c0.309-0.272,1.313,0.673,1.512,1.223C201.231,261.449,199.822,261.755,199.616,261.143z M201.678,254.245
		c0.447-0.578,1.1-1.326,2.165-1.971c1.065-0.646,1.443,0.306,1.168,0.952c-0.275,0.646-2.015,1.683-2.955,1.869
		C201.197,255.264,201.231,254.822,201.678,254.245z M201.85,257.473c1.271-0.747,1.993,0.306,1.684,0.986
		c-0.31,0.679-0.722,1.122-1.581,0.85C201.094,259.036,201.424,257.724,201.85,257.473z M204.471,265.73
		c-1.101-0.128-2.073-0.128-2.396-0.577c-0.324-0.448,0.648-1.73,1.295-1.73c0.648,0,2.367,1.765,2.527,1.986
		C206.22,265.858,205.572,265.858,204.471,265.73z M207.516,265.025c-0.842-0.128-2.202-1.281-2.656-2.434
		c-0.453-1.153,0.324-1.538,1.296-1.73c0.972-0.192,1.954,3.007,2.073,3.331C208.487,264.897,208.358,265.153,207.516,265.025z
		 M209.454,262.127c-0.979-0.329-1.092-1.704,0-1.715C210.546,260.423,210.434,261.797,209.454,262.127z M211.393,265.025
		c-0.842,0.128-0.971-0.128-0.713-0.833c0.119-0.324,1.101-3.524,2.073-3.331c0.972,0.192,1.749,0.577,1.296,1.73
		C213.596,263.744,212.235,264.897,211.393,265.025z M216.835,265.153c-0.324,0.448-1.296,0.448-2.397,0.577
		c-1.101,0.128-1.749,0.128-1.425-0.321c0.16-0.221,1.879-1.986,2.527-1.986C216.187,263.424,217.159,264.705,216.835,265.153z
		 M216.956,259.308c-0.859,0.272-1.271-0.17-1.581-0.85c-0.309-0.68,0.412-1.733,1.684-0.986
		C217.485,257.724,217.815,259.036,216.956,259.308z M216.853,255.094c-0.94-0.186-2.68-1.223-2.955-1.869
		c-0.275-0.646,0.103-1.597,1.169-0.952c1.065,0.646,1.718,1.393,2.165,1.971C217.678,254.822,217.712,255.264,216.853,255.094z
		 M219.293,261.143c-0.206,0.612-1.615,0.306-1.271-0.646c0.199-0.55,1.202-1.495,1.512-1.223
		C219.843,259.546,219.499,260.531,219.293,261.143z M221.137,267.328l-0.046-0.001l-0.046,0.001c-0.825,0-1.546-0.374-1.375-0.713
		c0.172-0.34,0.928-0.85,1.375-0.85l0.046,0.001l0.046-0.001c0.447,0,1.203,0.509,1.375,0.85
		C222.683,266.955,221.961,267.328,221.137,267.328z M222.889,261.143c-0.206-0.612-0.55-1.597-0.241-1.869
		c0.309-0.272,1.313,0.673,1.512,1.223C224.504,261.449,223.095,261.755,222.889,261.143z M224.951,254.245
		c0.447-0.578,1.1-1.326,2.165-1.971c1.065-0.646,1.443,0.306,1.168,0.952c-0.275,0.646-2.015,1.683-2.955,1.869
		C224.47,255.264,224.504,254.822,224.951,254.245z M225.122,257.473c1.272-0.747,1.993,0.306,1.684,0.986
		c-0.309,0.679-0.721,1.122-1.581,0.85C224.367,259.036,224.697,257.724,225.122,257.473z M227.744,265.73
		c-1.101-0.128-2.073-0.128-2.397-0.577c-0.324-0.448,0.648-1.73,1.296-1.73c0.648,0,2.367,1.765,2.526,1.986
		C229.493,265.858,228.845,265.858,227.744,265.73z M230.789,265.025c-0.842-0.128-2.203-1.281-2.656-2.434
		c-0.454-1.153,0.324-1.538,1.295-1.73c0.972-0.192,1.954,3.007,2.073,3.331C231.76,264.897,231.631,265.153,230.789,265.025z
		 M232.727,262.127c-0.979-0.329-1.091-1.704,0-1.715C233.819,260.423,233.707,261.797,232.727,262.127z M234.666,265.025
		c-0.842,0.128-0.971-0.128-0.712-0.833c0.119-0.324,1.101-3.524,2.073-3.331c0.971,0.192,1.749,0.577,1.296,1.73
		C236.868,263.744,235.508,264.897,234.666,265.025z M240.107,265.153c-0.324,0.448-1.296,0.448-2.397,0.577
		c-1.101,0.128-1.749,0.128-1.425-0.321c0.16-0.221,1.879-1.986,2.526-1.986C239.459,263.424,240.431,264.705,240.107,265.153z
		 M240.229,259.308c-0.859,0.272-1.272-0.17-1.581-0.85c-0.309-0.68,0.412-1.733,1.684-0.986
		C240.758,257.724,241.088,259.036,240.229,259.308z M240.126,255.094c-0.94-0.186-2.68-1.223-2.955-1.869
		c-0.275-0.646,0.103-1.597,1.168-0.952c1.065,0.646,1.718,1.393,2.165,1.971C240.95,254.822,240.985,255.264,240.126,255.094z
		 M242.565,261.143c-0.206,0.612-1.615,0.306-1.271-0.646c0.199-0.55,1.203-1.495,1.512-1.223
		C243.115,259.546,242.772,260.531,242.565,261.143z M244.409,267.328l-0.045-0.001l-0.046,0.001c-0.825,0-1.547-0.374-1.375-0.713
		c0.172-0.34,0.928-0.85,1.375-0.85l0.046,0.001l0.045-0.001c0.447,0,1.203,0.509,1.374,0.85
		C245.956,266.955,245.234,267.328,244.409,267.328z M246.162,261.143c-0.206-0.612-0.549-1.597-0.24-1.869
		c0.309-0.272,1.313,0.673,1.512,1.223C247.777,261.449,246.368,261.755,246.162,261.143z M248.223,254.245
		c0.447-0.578,1.1-1.326,2.165-1.971c1.065-0.646,1.443,0.306,1.168,0.952c-0.275,0.646-2.015,1.683-2.955,1.869
		C247.742,255.264,247.777,254.822,248.223,254.245z M248.395,257.473c1.271-0.747,1.993,0.306,1.684,0.986
		c-0.309,0.679-0.722,1.122-1.581,0.85C247.639,259.036,247.969,257.724,248.395,257.473z M251.017,265.73
		c-1.101-0.128-2.073-0.128-2.397-0.577c-0.324-0.448,0.648-1.73,1.296-1.73c0.648,0,2.367,1.765,2.526,1.986
		C252.766,265.858,252.118,265.858,251.017,265.73z M254.061,265.025c-0.842-0.128-2.203-1.281-2.656-2.434
		c-0.454-1.153,0.324-1.538,1.295-1.73c0.972-0.192,1.954,3.007,2.073,3.331C255.033,264.897,254.903,265.153,254.061,265.025z
		 M256,262.127c-0.979-0.329-1.091-1.704,0-1.715C257.092,260.423,256.979,261.797,256,262.127z M257.939,265.025
		c-0.842,0.128-0.972-0.128-0.713-0.833c0.119-0.324,1.101-3.524,2.073-3.331c0.972,0.192,1.749,0.577,1.296,1.73
		C260.141,263.744,258.781,264.897,257.939,265.025z M263.38,265.153c-0.324,0.448-1.296,0.448-2.397,0.577
		c-1.101,0.128-1.749,0.128-1.425-0.321c0.16-0.221,1.878-1.986,2.526-1.986C262.732,263.424,263.704,264.705,263.38,265.153z
		 M263.502,259.308c-0.859,0.272-1.271-0.17-1.581-0.85c-0.309-0.68,0.412-1.733,1.684-0.986
		C264.031,257.724,264.361,259.036,263.502,259.308z M263.399,255.094c-0.94-0.186-2.68-1.223-2.955-1.869
		c-0.275-0.646,0.103-1.597,1.168-0.952c1.065,0.646,1.718,1.393,2.165,1.971C264.223,254.822,264.258,255.264,263.399,255.094z
		 M265.838,261.143c-0.206,0.612-1.615,0.306-1.272-0.646c0.199-0.55,1.203-1.495,1.512-1.223
		C266.388,259.546,266.044,260.531,265.838,261.143z M267.682,267.328l-0.046-0.001l-0.046,0.001c-0.825,0-1.546-0.374-1.374-0.713
		c0.171-0.34,0.928-0.85,1.374-0.85l0.046,0.001l0.046-0.001c0.447,0,1.203,0.509,1.374,0.85
		C269.228,266.955,268.507,267.328,267.682,267.328z M269.434,261.143c-0.206-0.612-0.55-1.597-0.24-1.869
		c0.309-0.272,1.313,0.673,1.512,1.223C271.05,261.449,269.641,261.755,269.434,261.143z M271.496,254.245
		c0.447-0.578,1.1-1.326,2.165-1.971c1.065-0.646,1.443,0.306,1.168,0.952c-0.275,0.646-2.015,1.683-2.955,1.869
		C271.015,255.264,271.05,254.822,271.496,254.245z M271.668,257.473c1.271-0.747,1.993,0.306,1.684,0.986
		c-0.309,0.679-0.721,1.122-1.581,0.85C270.912,259.036,271.242,257.724,271.668,257.473z M274.289,265.73
		c-1.101-0.128-2.073-0.128-2.397-0.577c-0.324-0.448,0.648-1.73,1.296-1.73c0.648,0,2.366,1.765,2.526,1.986
		C276.038,265.858,275.391,265.858,274.289,265.73z M277.334,265.025c-0.842-0.128-2.203-1.281-2.656-2.434
		c-0.454-1.153,0.324-1.538,1.296-1.73c0.972-0.192,1.954,3.007,2.073,3.331C278.306,264.897,278.176,265.153,277.334,265.025z
		 M279.273,262.127c-0.979-0.329-1.092-1.704,0-1.715C280.364,260.423,280.252,261.797,279.273,262.127z M281.211,265.025
		c-0.842,0.128-0.972-0.128-0.713-0.833c0.119-0.324,1.101-3.524,2.073-3.331c0.972,0.192,1.749,0.577,1.295,1.73
		C283.414,263.744,282.053,264.897,281.211,265.025z M286.653,265.153c-0.324,0.448-1.296,0.448-2.397,0.577
		c-1.101,0.128-1.749,0.128-1.425-0.321c0.159-0.221,1.879-1.986,2.526-1.986C286.005,263.424,286.977,264.705,286.653,265.153z
		 M286.774,259.308c-0.859,0.272-1.271-0.17-1.581-0.85c-0.309-0.68,0.413-1.733,1.684-0.986
		C287.303,257.724,287.634,259.036,286.774,259.308z M286.671,255.094c-0.94-0.186-2.68-1.223-2.955-1.869
		c-0.274-0.646,0.104-1.597,1.169-0.952s1.718,1.393,2.165,1.971C287.496,254.822,287.53,255.264,286.671,255.094z M289.111,261.143
		c-0.206,0.612-1.615,0.306-1.271-0.646c0.199-0.55,1.203-1.495,1.512-1.223C289.661,259.546,289.317,260.531,289.111,261.143z
		 M290.955,267.328l-0.046-0.001l-0.046,0.001c-0.825,0-1.546-0.374-1.374-0.713c0.172-0.34,0.928-0.85,1.374-0.85l0.046,0.001
		l0.046-0.001c0.447,0,1.203,0.509,1.375,0.85C292.501,266.955,291.779,267.328,290.955,267.328z M292.707,261.143
		c-0.206-0.612-0.55-1.597-0.241-1.869c0.309-0.272,1.313,0.673,1.512,1.223C294.322,261.449,292.913,261.755,292.707,261.143z
		 M294.769,254.245c0.447-0.578,1.099-1.326,2.165-1.971c1.065-0.646,1.443,0.306,1.168,0.952c-0.275,0.646-2.016,1.683-2.955,1.869
		C294.288,255.264,294.322,254.822,294.769,254.245z M294.941,257.473c1.271-0.747,1.993,0.306,1.684,0.986
		c-0.309,0.679-0.722,1.122-1.581,0.85C294.185,259.036,294.515,257.724,294.941,257.473z M297.562,265.73
		c-1.101-0.128-2.073-0.128-2.397-0.577c-0.324-0.448,0.648-1.73,1.296-1.73c0.648,0,2.367,1.765,2.526,1.986
		C299.311,265.858,298.663,265.858,297.562,265.73z M300.607,265.025c-0.842-0.128-2.203-1.281-2.656-2.434
		c-0.453-1.153,0.324-1.538,1.296-1.73c0.971-0.192,1.954,3.007,2.073,3.331C301.578,264.897,301.449,265.153,300.607,265.025z
		 M302.546,262.127c-0.98-0.329-1.092-1.704,0-1.715C303.637,260.423,303.525,261.797,302.546,262.127z M304.484,265.025
		c-0.842,0.128-0.972-0.128-0.712-0.833c0.119-0.324,1.101-3.524,2.073-3.331c0.972,0.192,1.749,0.577,1.296,1.73
		C306.687,263.744,305.326,264.897,304.484,265.025z M309.925,265.153c-0.324,0.448-1.295,0.448-2.396,0.577
		c-1.101,0.128-1.749,0.128-1.426-0.321c0.16-0.221,1.879-1.986,2.527-1.986C309.278,263.424,310.25,264.705,309.925,265.153z
		 M310.047,259.308c-0.859,0.272-1.271-0.17-1.581-0.85c-0.309-0.68,0.413-1.733,1.684-0.986
		C310.576,257.724,310.906,259.036,310.047,259.308z M309.944,255.094c-0.94-0.186-2.68-1.223-2.955-1.869
		c-0.275-0.646,0.103-1.597,1.168-0.952c1.065,0.646,1.718,1.393,2.165,1.971C310.768,254.822,310.803,255.264,309.944,255.094z
		 M312.384,261.143c-0.206,0.612-1.615,0.306-1.271-0.646c0.199-0.55,1.203-1.495,1.512-1.223
		C312.934,259.546,312.59,260.531,312.384,261.143z M314.228,267.328l-0.046-0.001l-0.046,0.001c-0.825,0-1.546-0.374-1.375-0.713
		c0.172-0.34,0.928-0.85,1.375-0.85l0.046,0.001l0.046-0.001c0.447,0,1.203,0.509,1.374,0.85
		C315.774,266.955,315.052,267.328,314.228,267.328z M315.98,261.143c-0.206-0.612-0.55-1.597-0.241-1.869
		c0.309-0.272,1.313,0.673,1.512,1.223C317.595,261.449,316.186,261.755,315.98,261.143z M318.042,254.245
		c0.447-0.578,1.1-1.326,2.165-1.971c1.065-0.646,1.443,0.306,1.168,0.952c-0.275,0.646-2.015,1.683-2.955,1.869
		C317.561,255.264,317.595,254.822,318.042,254.245z M318.213,257.473c1.272-0.747,1.993,0.306,1.684,0.986
		c-0.31,0.679-0.722,1.122-1.581,0.85C317.457,259.036,317.788,257.724,318.213,257.473z M320.835,265.73
		c-1.101-0.128-2.073-0.128-2.397-0.577c-0.324-0.448,0.648-1.73,1.296-1.73c0.648,0,2.367,1.765,2.527,1.986
		C322.584,265.858,321.936,265.858,320.835,265.73z M323.88,265.025c-0.842-0.128-2.203-1.281-2.656-2.434
		c-0.453-1.153,0.324-1.538,1.296-1.73c0.972-0.192,1.954,3.007,2.073,3.331C324.851,264.897,324.722,265.153,323.88,265.025z
		 M325.818,262.127c-0.979-0.329-1.091-1.704,0-1.715C326.91,260.423,326.798,261.797,325.818,262.127z M327.757,265.025
		c-0.842,0.128-0.972-0.128-0.712-0.833c0.119-0.324,1.101-3.524,2.073-3.331c0.972,0.192,1.749,0.577,1.296,1.73
		C329.96,263.744,328.599,264.897,327.757,265.025z M333.198,265.153c-0.324,0.448-1.296,0.448-2.397,0.577
		c-1.101,0.128-1.749,0.128-1.425-0.321c0.16-0.221,1.878-1.986,2.526-1.986C332.55,263.424,333.522,264.705,333.198,265.153z
		 M333.32,259.308c-0.859,0.272-1.271-0.17-1.581-0.85c-0.31-0.68,0.412-1.733,1.684-0.986
		C333.849,257.724,334.179,259.036,333.32,259.308z M333.217,255.094c-0.94-0.186-2.68-1.223-2.955-1.869
		c-0.275-0.646,0.103-1.597,1.168-0.952c1.065,0.646,1.718,1.393,2.165,1.971C334.041,254.822,334.076,255.264,333.217,255.094z
		 M335.656,261.143c-0.206,0.612-1.615,0.306-1.271-0.646c0.199-0.55,1.203-1.495,1.512-1.223
		C336.206,259.546,335.863,260.531,335.656,261.143z M337.5,267.328l-0.046-0.001l-0.046,0.001c-0.825,0-1.546-0.374-1.375-0.713
		c0.172-0.34,0.928-0.85,1.375-0.85l0.046,0.001l0.046-0.001c0.447,0,1.203,0.509,1.374,0.85
		C339.047,266.955,338.325,267.328,337.5,267.328z M339.253,261.143c-0.206-0.612-0.55-1.597-0.241-1.869
		c0.31-0.272,1.313,0.673,1.512,1.223C340.868,261.449,339.459,261.755,339.253,261.143z M341.314,254.245
		c0.447-0.578,1.1-1.326,2.165-1.971c1.065-0.646,1.443,0.306,1.168,0.952c-0.275,0.646-2.015,1.683-2.955,1.869
		C340.833,255.264,340.868,254.822,341.314,254.245z M341.486,257.473c1.271-0.747,1.993,0.306,1.684,0.986
		c-0.309,0.679-0.722,1.122-1.581,0.85C340.73,259.036,341.06,257.724,341.486,257.473z M344.108,265.73
		c-1.101-0.128-2.073-0.128-2.397-0.577c-0.324-0.448,0.648-1.73,1.296-1.73c0.648,0,2.367,1.765,2.526,1.986
		C345.857,265.858,345.209,265.858,344.108,265.73z M347.152,265.025c-0.842-0.128-2.202-1.281-2.656-2.434
		c-0.454-1.153,0.324-1.538,1.295-1.73c0.972-0.192,1.954,3.007,2.073,3.331C348.124,264.897,347.994,265.153,347.152,265.025z
		 M349.091,262.127c-0.979-0.329-1.091-1.704,0-1.715C350.182,260.423,350.07,261.797,349.091,262.127z M351.03,265.025
		c-0.842,0.128-0.972-0.128-0.713-0.833c0.119-0.324,1.101-3.524,2.073-3.331c0.972,0.192,1.749,0.577,1.295,1.73
		C353.232,263.744,351.872,264.897,351.03,265.025z M356.471,265.153c-0.324,0.448-1.296,0.448-2.397,0.577
		c-1.101,0.128-1.749,0.128-1.425-0.321c0.16-0.221,1.879-1.986,2.526-1.986C355.823,263.424,356.795,264.705,356.471,265.153z
		 M356.593,259.308c-0.859,0.272-1.272-0.17-1.581-0.85c-0.309-0.68,0.412-1.733,1.684-0.986
		C357.122,257.724,357.452,259.036,356.593,259.308z M356.49,255.094c-0.94-0.186-2.681-1.223-2.955-1.869
		c-0.275-0.646,0.103-1.597,1.168-0.952c1.065,0.646,1.718,1.393,2.165,1.971C357.314,254.822,357.348,255.264,356.49,255.094z
		 M358.929,261.143c-0.207,0.612-1.615,0.306-1.272-0.646c0.199-0.55,1.203-1.495,1.512-1.223
		C359.479,259.546,359.135,260.531,358.929,261.143z M360.773,267.328l-0.046-0.001l-0.046,0.001c-0.825,0-1.546-0.374-1.374-0.713
		c0.172-0.34,0.928-0.85,1.374-0.85l0.046,0.001l0.046-0.001c0.447,0,1.203,0.509,1.375,0.85
		C362.319,266.955,361.598,267.328,360.773,267.328z M362.525,261.143c-0.206-0.612-0.55-1.597-0.241-1.869
		c0.309-0.272,1.313,0.673,1.512,1.223C364.141,261.449,362.731,261.755,362.525,261.143z M364.587,254.245
		c0.447-0.578,1.099-1.326,2.165-1.971c1.065-0.646,1.443,0.306,1.168,0.952c-0.275,0.646-2.015,1.683-2.955,1.869
		C364.106,255.264,364.141,254.822,364.587,254.245z M364.759,257.473c1.271-0.747,1.993,0.306,1.684,0.986
		c-0.309,0.679-0.722,1.122-1.581,0.85C364.003,259.036,364.333,257.724,364.759,257.473z M367.38,265.73
		c-1.101-0.128-2.073-0.128-2.397-0.577c-0.324-0.448,0.648-1.73,1.296-1.73c0.648,0,2.366,1.765,2.526,1.986
		C369.129,265.858,368.482,265.858,367.38,265.73z M370.425,265.025c-0.842-0.128-2.203-1.281-2.656-2.434
		c-0.454-1.153,0.324-1.538,1.296-1.73c0.972-0.192,1.954,3.007,2.073,3.331C371.397,264.897,371.267,265.153,370.425,265.025z
		 M372.364,262.127c-0.98-0.329-1.092-1.704,0-1.715C373.455,260.423,373.343,261.797,372.364,262.127z M374.302,265.025
		c-0.842,0.128-0.972-0.128-0.712-0.833c0.119-0.324,1.101-3.524,2.073-3.331c0.972,0.192,1.749,0.577,1.296,1.73
		C376.505,263.744,375.144,264.897,374.302,265.025z M379.744,265.153c-0.324,0.448-1.296,0.448-2.397,0.577
		c-1.101,0.128-1.749,0.128-1.425-0.321c0.16-0.221,1.879-1.986,2.527-1.986C379.096,263.424,380.068,264.705,379.744,265.153z
		 M379.865,259.308c-0.859,0.272-1.271-0.17-1.581-0.85c-0.309-0.68,0.413-1.733,1.684-0.986
		C380.394,257.724,380.724,259.036,379.865,259.308z M379.762,255.094c-0.94-0.186-2.68-1.223-2.955-1.869
		c-0.275-0.646,0.103-1.597,1.168-0.952c1.065,0.646,1.718,1.393,2.165,1.971C380.587,254.822,380.621,255.264,379.762,255.094z
		 M382.202,261.143c-0.206,0.612-1.615,0.306-1.271-0.646c0.199-0.55,1.203-1.495,1.512-1.223
		C382.752,259.546,382.408,260.531,382.202,261.143z M384.046,267.328L384,267.328l-0.046,0.001c-0.825,0-1.546-0.374-1.375-0.713
		c0.172-0.34,0.928-0.85,1.375-0.85l0.046,0.001l0.046-0.001c0.447,0,1.203,0.509,1.375,0.85
		C385.592,266.955,384.87,267.328,384.046,267.328z M385.798,261.143c-0.206-0.612-0.55-1.597-0.24-1.869
		c0.309-0.272,1.313,0.673,1.512,1.223C387.413,261.449,386.004,261.755,385.798,261.143z M387.86,254.245
		c0.447-0.578,1.1-1.326,2.165-1.971c1.065-0.646,1.443,0.306,1.168,0.952c-0.275,0.646-2.016,1.683-2.955,1.869
		C387.379,255.264,387.413,254.822,387.86,254.245z M388.032,257.473c1.271-0.747,1.993,0.306,1.684,0.986
		c-0.309,0.679-0.722,1.122-1.581,0.85C387.276,259.036,387.606,257.724,388.032,257.473z M390.653,265.73
		c-1.101-0.128-2.073-0.128-2.397-0.577c-0.324-0.448,0.648-1.73,1.296-1.73c0.648,0,2.367,1.765,2.527,1.986
		C392.402,265.858,391.754,265.858,390.653,265.73z M393.698,265.025c-0.842-0.128-2.202-1.281-2.656-2.434
		c-0.453-1.153,0.324-1.538,1.296-1.73c0.972-0.192,1.953,3.007,2.073,3.331C394.669,264.897,394.54,265.153,393.698,265.025z
		 M395.636,262.127c-0.979-0.329-1.092-1.704,0-1.715C396.728,260.423,396.616,261.797,395.636,262.127z M397.575,265.025
		c-0.842,0.128-0.972-0.128-0.713-0.833c0.119-0.324,1.101-3.524,2.073-3.331c0.972,0.192,1.749,0.577,1.296,1.73
		C399.778,263.744,398.417,264.897,397.575,265.025z M403.016,265.153c-0.324,0.448-1.296,0.448-2.397,0.577
		c-1.101,0.128-1.749,0.128-1.425-0.321c0.16-0.221,1.879-1.986,2.526-1.986C402.369,263.424,403.34,264.705,403.016,265.153z
		 M403.138,259.308c-0.859,0.272-1.271-0.17-1.581-0.85c-0.309-0.68,0.413-1.733,1.684-0.986
		C403.667,257.724,403.997,259.036,403.138,259.308z M403.035,255.094c-0.94-0.186-2.68-1.223-2.955-1.869
		c-0.275-0.646,0.103-1.597,1.168-0.952c1.065,0.646,1.718,1.393,2.165,1.971C403.859,254.822,403.894,255.264,403.035,255.094z
		 M405.475,261.143c-0.206,0.612-1.615,0.306-1.271-0.646c0.199-0.55,1.203-1.495,1.512-1.223
		C406.025,259.546,405.681,260.531,405.475,261.143z M407.318,267.328l-0.046-0.001l-0.046,0.001c-0.825,0-1.546-0.374-1.375-0.713
		c0.172-0.34,0.928-0.85,1.375-0.85l0.046,0.001l0.046-0.001c0.447,0,1.203,0.509,1.374,0.85
		C408.865,266.955,408.143,267.328,407.318,267.328z M409.071,261.143c-0.206-0.612-0.55-1.597-0.241-1.869
		c0.309-0.272,1.313,0.673,1.512,1.223C410.686,261.449,409.277,261.755,409.071,261.143z M411.133,254.245
		c0.447-0.578,1.1-1.326,2.165-1.971c1.065-0.646,1.443,0.306,1.168,0.952c-0.275,0.646-2.015,1.683-2.955,1.869
		C410.651,255.264,410.686,254.822,411.133,254.245z M411.304,257.473c1.272-0.747,1.993,0.306,1.684,0.986
		c-0.31,0.679-0.722,1.122-1.581,0.85C410.548,259.036,410.878,257.724,411.304,257.473z M413.926,265.73
		c-1.101-0.128-2.073-0.128-2.397-0.577c-0.324-0.448,0.648-1.73,1.296-1.73c0.648,0,2.367,1.765,2.526,1.986
		C415.675,265.858,415.027,265.858,413.926,265.73z M416.97,265.025c-0.842-0.128-2.202-1.281-2.656-2.434
		c-0.454-1.153,0.324-1.538,1.295-1.73c0.972-0.192,1.954,3.007,2.073,3.331C417.942,264.897,417.813,265.153,416.97,265.025z
		 M418.909,262.127c-0.979-0.329-1.092-1.704,0-1.715C420.001,260.423,419.888,261.797,418.909,262.127z M420.848,265.025
		c-0.842,0.128-0.972-0.128-0.712-0.833c0.119-0.324,1.101-3.524,2.073-3.331c0.971,0.192,1.749,0.577,1.296,1.73
		C423.05,263.744,421.69,264.897,420.848,265.025z M426.289,265.153c-0.324,0.448-1.296,0.448-2.397,0.577
		c-1.102,0.128-1.749,0.128-1.425-0.321c0.16-0.221,1.879-1.986,2.526-1.986C425.641,263.424,426.613,264.705,426.289,265.153z
		 M426.411,259.308c-0.859,0.272-1.271-0.17-1.581-0.85c-0.31-0.68,0.412-1.733,1.684-0.986
		C426.94,257.724,427.27,259.036,426.411,259.308z M426.308,255.094c-0.94-0.186-2.68-1.223-2.955-1.869
		c-0.275-0.646,0.103-1.597,1.168-0.952c1.065,0.646,1.718,1.393,2.165,1.971C427.132,254.822,427.167,255.264,426.308,255.094z
		 M428.747,261.143c-0.206,0.612-1.615,0.306-1.271-0.646c0.199-0.55,1.203-1.495,1.512-1.223
		C429.297,259.546,428.954,260.531,428.747,261.143z M430.591,267.328l-0.046-0.001l-0.046,0.001c-0.825,0-1.546-0.374-1.375-0.713
		c0.172-0.34,0.928-0.85,1.375-0.85l0.046,0.001l0.046-0.001c0.447,0,1.203,0.509,1.374,0.85
		C432.137,266.955,431.416,267.328,430.591,267.328z M432.343,261.143c-0.206-0.612-0.549-1.597-0.24-1.869
		c0.309-0.272,1.313,0.673,1.512,1.223C433.959,261.449,432.55,261.755,432.343,261.143z M434.405,254.245
		c0.447-0.578,1.1-1.326,2.165-1.971c1.065-0.646,1.443,0.306,1.168,0.952c-0.275,0.646-2.015,1.683-2.955,1.869
		C433.924,255.264,433.959,254.822,434.405,254.245z M434.577,257.473c1.271-0.747,1.993,0.306,1.684,0.986
		c-0.309,0.679-0.722,1.122-1.581,0.85C433.821,259.036,434.151,257.724,434.577,257.473z M437.199,265.73
		c-1.101-0.128-2.073-0.128-2.397-0.577c-0.324-0.448,0.648-1.73,1.296-1.73c0.648,0,2.367,1.765,2.526,1.986
		C438.948,265.858,438.3,265.858,437.199,265.73z M440.243,265.025c-0.842-0.128-2.202-1.281-2.656-2.434
		c-0.453-1.153,0.324-1.538,1.296-1.73c0.972-0.192,1.954,3.007,2.073,3.331C441.215,264.897,441.085,265.153,440.243,265.025z
		 M442.182,262.127c-0.979-0.329-1.092-1.704,0-1.715C443.273,260.423,443.161,261.797,442.182,262.127z M444.12,265.025
		c-0.842,0.128-0.972-0.128-0.713-0.833c0.119-0.324,1.102-3.524,2.073-3.331c0.972,0.192,1.749,0.577,1.295,1.73
		C446.323,263.744,444.962,264.897,444.12,265.025z M449.562,265.153c-0.324,0.448-1.296,0.448-2.397,0.577
		c-1.101,0.128-1.749,0.128-1.425-0.321c0.16-0.221,1.878-1.986,2.526-1.986C448.914,263.424,449.886,264.705,449.562,265.153z
		 M449.684,259.308c-0.859,0.272-1.272-0.17-1.581-0.85c-0.309-0.68,0.412-1.733,1.684-0.986
		C450.212,257.724,450.543,259.036,449.684,259.308z M449.58,255.094c-0.94-0.186-2.68-1.223-2.955-1.869
		c-0.275-0.646,0.103-1.597,1.168-0.952c1.065,0.646,1.718,1.393,2.165,1.971C450.405,254.822,450.44,255.264,449.58,255.094z
		 M452.02,261.143c-0.207,0.612-1.615,0.306-1.272-0.646c0.199-0.55,1.203-1.495,1.512-1.223
		C452.57,259.546,452.226,260.531,452.02,261.143z M453.864,267.328l-0.046-0.001l-0.046,0.001c-0.825,0-1.546-0.374-1.374-0.713
		c0.172-0.34,0.928-0.85,1.374-0.85l0.046,0.001l0.046-0.001c0.447,0,1.203,0.509,1.375,0.85
		C455.41,266.955,454.688,267.328,453.864,267.328z M455.616,261.143c-0.206-0.612-0.55-1.597-0.241-1.869
		c0.309-0.272,1.313,0.673,1.512,1.223C457.231,261.449,455.822,261.755,455.616,261.143z M457.678,254.245
		c0.447-0.578,1.1-1.326,2.165-1.971s1.443,0.306,1.168,0.952c-0.275,0.646-2.015,1.683-2.955,1.869
		C457.197,255.264,457.231,254.822,457.678,254.245z M457.85,257.473c1.271-0.747,1.993,0.306,1.684,0.986
		c-0.309,0.679-0.721,1.122-1.581,0.85C457.094,259.036,457.424,257.724,457.85,257.473z M460.471,265.73
		c-1.101-0.128-2.073-0.128-2.397-0.577c-0.324-0.448,0.648-1.73,1.296-1.73c0.648,0,2.366,1.765,2.526,1.986
		C462.22,265.858,461.573,265.858,460.471,265.73z M463.516,265.025c-0.842-0.128-2.203-1.281-2.656-2.434
		c-0.453-1.153,0.324-1.538,1.296-1.73c0.972-0.192,1.954,3.007,2.073,3.331C464.487,264.897,464.358,265.153,463.516,265.025z
		 M465.455,262.127c-0.979-0.329-1.092-1.704,0-1.715C466.546,260.423,466.434,261.797,465.455,262.127z M467.393,265.025
		c-0.842,0.128-0.971-0.128-0.712-0.833c0.119-0.324,1.101-3.524,2.073-3.331c0.972,0.192,1.749,0.577,1.295,1.73
		C469.596,263.744,468.235,264.897,467.393,265.025z M472.835,265.153c-0.324,0.448-1.296,0.448-2.397,0.577
		c-1.101,0.128-1.749,0.128-1.425-0.321c0.16-0.221,1.879-1.986,2.526-1.986C472.187,263.424,473.159,264.705,472.835,265.153z
		 M472.956,259.308c-0.859,0.272-1.271-0.17-1.581-0.85c-0.309-0.68,0.413-1.733,1.684-0.986
		C473.485,257.724,473.815,259.036,472.956,259.308z M472.853,255.094c-0.94-0.186-2.68-1.223-2.955-1.869
		c-0.275-0.646,0.103-1.597,1.168-0.952c1.065,0.646,1.718,1.393,2.165,1.971C473.678,254.822,473.712,255.264,472.853,255.094z
		 M475.293,261.143c-0.206,0.612-1.615,0.306-1.271-0.646c0.199-0.55,1.203-1.495,1.512-1.223
		C475.843,259.546,475.499,260.531,475.293,261.143z M477.137,267.328l-0.046-0.001l-0.046,0.001c-0.825,0-1.546-0.374-1.375-0.713
		c0.172-0.34,0.928-0.85,1.375-0.85l0.046,0.001l0.046-0.001c0.447,0,1.203,0.509,1.375,0.85
		C478.683,266.955,477.961,267.328,477.137,267.328z M478.889,261.143c-0.206-0.612-0.55-1.597-0.241-1.869
		c0.309-0.272,1.313,0.673,1.512,1.223C480.504,261.449,479.095,261.755,478.889,261.143z M480.951,254.245
		c0.447-0.578,1.099-1.326,2.165-1.971c1.065-0.646,1.443,0.306,1.169,0.952c-0.275,0.646-2.016,1.683-2.955,1.869
		C480.47,255.264,480.504,254.822,480.951,254.245z M481.123,257.473c1.271-0.747,1.993,0.306,1.684,0.986
		c-0.309,0.679-0.722,1.122-1.581,0.85C480.367,259.036,480.697,257.724,481.123,257.473z M483.744,265.73
		c-1.101-0.128-2.073-0.128-2.397-0.577c-0.324-0.448,0.648-1.73,1.296-1.73c0.648,0,2.367,1.765,2.526,1.986
		C485.493,265.858,484.845,265.858,483.744,265.73z M486.789,265.025c-0.842-0.128-2.203-1.281-2.656-2.434
		c-0.453-1.153,0.324-1.538,1.296-1.73c0.971-0.192,1.953,3.007,2.073,3.331C487.76,264.897,487.631,265.153,486.789,265.025z
		 M488.727,262.127c-0.98-0.329-1.092-1.704,0-1.715C489.819,260.423,489.707,261.797,488.727,262.127z M490.666,265.025
		c-0.842,0.128-0.972-0.128-0.712-0.833c0.119-0.324,1.101-3.524,2.073-3.331c0.972,0.192,1.749,0.577,1.296,1.73
		C492.868,263.744,491.508,264.897,490.666,265.025z M496.107,265.153c-0.324,0.448-1.295,0.448-2.397,0.577
		c-1.101,0.128-1.749,0.128-1.426-0.321c0.16-0.221,1.879-1.986,2.527-1.986C495.459,263.424,496.431,264.705,496.107,265.153z
		 M496.229,259.308c-0.859,0.272-1.271-0.17-1.581-0.85c-0.309-0.68,0.413-1.733,1.684-0.986
		C496.758,257.724,497.088,259.036,496.229,259.308z M496.126,255.094c-0.94-0.186-2.68-1.223-2.955-1.869
		c-0.275-0.646,0.103-1.597,1.168-0.952s1.718,1.393,2.165,1.971C496.95,254.822,496.985,255.264,496.126,255.094z M498.565,261.143
		c-0.206,0.612-1.615,0.306-1.271-0.646c0.199-0.55,1.203-1.495,1.512-1.223C499.115,259.546,498.772,260.531,498.565,261.143z
		 M500.409,267.328l-0.046-0.001l-0.046,0.001c-0.825,0-1.546-0.374-1.375-0.713c0.172-0.34,0.928-0.85,1.375-0.85l0.046,0.001
		l0.046-0.001c0.447,0,1.203,0.509,1.374,0.85C501.956,266.955,501.234,267.328,500.409,267.328z M502.162,261.143
		c-0.206-0.612-0.55-1.597-0.241-1.869c0.31-0.272,1.313,0.673,1.512,1.223C503.777,261.449,502.368,261.755,502.162,261.143z
		 M504.223,254.245c0.447-0.578,1.1-1.326,2.165-1.971c1.065-0.646,1.443,0.306,1.168,0.952c-0.275,0.646-2.015,1.683-2.955,1.869
		C503.742,255.264,503.777,254.822,504.223,254.245z M504.395,257.473c1.271-0.747,1.993,0.306,1.684,0.986
		c-0.309,0.679-0.722,1.122-1.581,0.85C503.639,259.036,503.969,257.724,504.395,257.473z M507.017,265.73
		c-1.101-0.128-2.073-0.128-2.397-0.577c-0.324-0.448,0.648-1.73,1.296-1.73c0.648,0,2.367,1.765,2.526,1.986
		C508.766,265.858,508.118,265.858,507.017,265.73z M510.774,264.192c0.259,0.705,0.129,0.961-0.713,0.833
		c-0.842-0.128-2.202-1.281-2.656-2.434c-0.453-1.153,0.324-1.538,1.296-1.73C509.673,260.668,510.655,263.868,510.774,264.192z
		 M509.068,251.831c-0.412-0.034-0.549-0.475-0.412-0.781c0.138-0.306,0.378-0.68,0.893-0.272
		C510.065,251.186,509.548,251.871,509.068,251.831z"/>
</g>
</svg>
